G75*
%MOIN*%
%OFA0B0*%
%FSLAX25Y25*%
%IPPOS*%
%LPD*%
%AMOC8*
5,1,8,0,0,1.08239X$1,22.5*
%
%ADD10C,0.00000*%
%ADD11C,0.00600*%
%ADD12C,0.00800*%
%ADD13C,0.02200*%
%ADD14C,0.00500*%
%ADD15C,0.01000*%
%ADD16R,0.03000X0.01800*%
D10*
X0009000Y0051500D02*
X0009000Y0151500D01*
X0045250Y0151500D01*
X0045250Y0098000D01*
X0097750Y0098000D01*
X0097750Y0151500D01*
X0134000Y0151500D01*
X0134000Y0051500D01*
X0009000Y0051500D01*
X0033313Y0110850D02*
X0033315Y0110975D01*
X0033321Y0111100D01*
X0033331Y0111224D01*
X0033345Y0111348D01*
X0033362Y0111472D01*
X0033384Y0111595D01*
X0033410Y0111717D01*
X0033439Y0111839D01*
X0033472Y0111959D01*
X0033510Y0112078D01*
X0033550Y0112197D01*
X0033595Y0112313D01*
X0033643Y0112428D01*
X0033695Y0112542D01*
X0033751Y0112654D01*
X0033810Y0112764D01*
X0033872Y0112872D01*
X0033938Y0112979D01*
X0034007Y0113083D01*
X0034080Y0113184D01*
X0034155Y0113284D01*
X0034234Y0113381D01*
X0034316Y0113475D01*
X0034401Y0113567D01*
X0034488Y0113656D01*
X0034579Y0113742D01*
X0034672Y0113825D01*
X0034768Y0113906D01*
X0034866Y0113983D01*
X0034966Y0114057D01*
X0035069Y0114128D01*
X0035174Y0114195D01*
X0035282Y0114260D01*
X0035391Y0114320D01*
X0035502Y0114378D01*
X0035615Y0114431D01*
X0035729Y0114481D01*
X0035845Y0114528D01*
X0035962Y0114570D01*
X0036081Y0114609D01*
X0036201Y0114645D01*
X0036322Y0114676D01*
X0036444Y0114704D01*
X0036566Y0114727D01*
X0036690Y0114747D01*
X0036814Y0114763D01*
X0036938Y0114775D01*
X0037063Y0114783D01*
X0037188Y0114787D01*
X0037312Y0114787D01*
X0037437Y0114783D01*
X0037562Y0114775D01*
X0037686Y0114763D01*
X0037810Y0114747D01*
X0037934Y0114727D01*
X0038056Y0114704D01*
X0038178Y0114676D01*
X0038299Y0114645D01*
X0038419Y0114609D01*
X0038538Y0114570D01*
X0038655Y0114528D01*
X0038771Y0114481D01*
X0038885Y0114431D01*
X0038998Y0114378D01*
X0039109Y0114320D01*
X0039219Y0114260D01*
X0039326Y0114195D01*
X0039431Y0114128D01*
X0039534Y0114057D01*
X0039634Y0113983D01*
X0039732Y0113906D01*
X0039828Y0113825D01*
X0039921Y0113742D01*
X0040012Y0113656D01*
X0040099Y0113567D01*
X0040184Y0113475D01*
X0040266Y0113381D01*
X0040345Y0113284D01*
X0040420Y0113184D01*
X0040493Y0113083D01*
X0040562Y0112979D01*
X0040628Y0112872D01*
X0040690Y0112764D01*
X0040749Y0112654D01*
X0040805Y0112542D01*
X0040857Y0112428D01*
X0040905Y0112313D01*
X0040950Y0112197D01*
X0040990Y0112078D01*
X0041028Y0111959D01*
X0041061Y0111839D01*
X0041090Y0111717D01*
X0041116Y0111595D01*
X0041138Y0111472D01*
X0041155Y0111348D01*
X0041169Y0111224D01*
X0041179Y0111100D01*
X0041185Y0110975D01*
X0041187Y0110850D01*
X0041185Y0110725D01*
X0041179Y0110600D01*
X0041169Y0110476D01*
X0041155Y0110352D01*
X0041138Y0110228D01*
X0041116Y0110105D01*
X0041090Y0109983D01*
X0041061Y0109861D01*
X0041028Y0109741D01*
X0040990Y0109622D01*
X0040950Y0109503D01*
X0040905Y0109387D01*
X0040857Y0109272D01*
X0040805Y0109158D01*
X0040749Y0109046D01*
X0040690Y0108936D01*
X0040628Y0108828D01*
X0040562Y0108721D01*
X0040493Y0108617D01*
X0040420Y0108516D01*
X0040345Y0108416D01*
X0040266Y0108319D01*
X0040184Y0108225D01*
X0040099Y0108133D01*
X0040012Y0108044D01*
X0039921Y0107958D01*
X0039828Y0107875D01*
X0039732Y0107794D01*
X0039634Y0107717D01*
X0039534Y0107643D01*
X0039431Y0107572D01*
X0039326Y0107505D01*
X0039218Y0107440D01*
X0039109Y0107380D01*
X0038998Y0107322D01*
X0038885Y0107269D01*
X0038771Y0107219D01*
X0038655Y0107172D01*
X0038538Y0107130D01*
X0038419Y0107091D01*
X0038299Y0107055D01*
X0038178Y0107024D01*
X0038056Y0106996D01*
X0037934Y0106973D01*
X0037810Y0106953D01*
X0037686Y0106937D01*
X0037562Y0106925D01*
X0037437Y0106917D01*
X0037312Y0106913D01*
X0037188Y0106913D01*
X0037063Y0106917D01*
X0036938Y0106925D01*
X0036814Y0106937D01*
X0036690Y0106953D01*
X0036566Y0106973D01*
X0036444Y0106996D01*
X0036322Y0107024D01*
X0036201Y0107055D01*
X0036081Y0107091D01*
X0035962Y0107130D01*
X0035845Y0107172D01*
X0035729Y0107219D01*
X0035615Y0107269D01*
X0035502Y0107322D01*
X0035391Y0107380D01*
X0035281Y0107440D01*
X0035174Y0107505D01*
X0035069Y0107572D01*
X0034966Y0107643D01*
X0034866Y0107717D01*
X0034768Y0107794D01*
X0034672Y0107875D01*
X0034579Y0107958D01*
X0034488Y0108044D01*
X0034401Y0108133D01*
X0034316Y0108225D01*
X0034234Y0108319D01*
X0034155Y0108416D01*
X0034080Y0108516D01*
X0034007Y0108617D01*
X0033938Y0108721D01*
X0033872Y0108828D01*
X0033810Y0108936D01*
X0033751Y0109046D01*
X0033695Y0109158D01*
X0033643Y0109272D01*
X0033595Y0109387D01*
X0033550Y0109503D01*
X0033510Y0109622D01*
X0033472Y0109741D01*
X0033439Y0109861D01*
X0033410Y0109983D01*
X0033384Y0110105D01*
X0033362Y0110228D01*
X0033345Y0110352D01*
X0033331Y0110476D01*
X0033321Y0110600D01*
X0033315Y0110725D01*
X0033313Y0110850D01*
X0033313Y0138410D02*
X0033315Y0138535D01*
X0033321Y0138660D01*
X0033331Y0138784D01*
X0033345Y0138908D01*
X0033362Y0139032D01*
X0033384Y0139155D01*
X0033410Y0139277D01*
X0033439Y0139399D01*
X0033472Y0139519D01*
X0033510Y0139638D01*
X0033550Y0139757D01*
X0033595Y0139873D01*
X0033643Y0139988D01*
X0033695Y0140102D01*
X0033751Y0140214D01*
X0033810Y0140324D01*
X0033872Y0140432D01*
X0033938Y0140539D01*
X0034007Y0140643D01*
X0034080Y0140744D01*
X0034155Y0140844D01*
X0034234Y0140941D01*
X0034316Y0141035D01*
X0034401Y0141127D01*
X0034488Y0141216D01*
X0034579Y0141302D01*
X0034672Y0141385D01*
X0034768Y0141466D01*
X0034866Y0141543D01*
X0034966Y0141617D01*
X0035069Y0141688D01*
X0035174Y0141755D01*
X0035282Y0141820D01*
X0035391Y0141880D01*
X0035502Y0141938D01*
X0035615Y0141991D01*
X0035729Y0142041D01*
X0035845Y0142088D01*
X0035962Y0142130D01*
X0036081Y0142169D01*
X0036201Y0142205D01*
X0036322Y0142236D01*
X0036444Y0142264D01*
X0036566Y0142287D01*
X0036690Y0142307D01*
X0036814Y0142323D01*
X0036938Y0142335D01*
X0037063Y0142343D01*
X0037188Y0142347D01*
X0037312Y0142347D01*
X0037437Y0142343D01*
X0037562Y0142335D01*
X0037686Y0142323D01*
X0037810Y0142307D01*
X0037934Y0142287D01*
X0038056Y0142264D01*
X0038178Y0142236D01*
X0038299Y0142205D01*
X0038419Y0142169D01*
X0038538Y0142130D01*
X0038655Y0142088D01*
X0038771Y0142041D01*
X0038885Y0141991D01*
X0038998Y0141938D01*
X0039109Y0141880D01*
X0039219Y0141820D01*
X0039326Y0141755D01*
X0039431Y0141688D01*
X0039534Y0141617D01*
X0039634Y0141543D01*
X0039732Y0141466D01*
X0039828Y0141385D01*
X0039921Y0141302D01*
X0040012Y0141216D01*
X0040099Y0141127D01*
X0040184Y0141035D01*
X0040266Y0140941D01*
X0040345Y0140844D01*
X0040420Y0140744D01*
X0040493Y0140643D01*
X0040562Y0140539D01*
X0040628Y0140432D01*
X0040690Y0140324D01*
X0040749Y0140214D01*
X0040805Y0140102D01*
X0040857Y0139988D01*
X0040905Y0139873D01*
X0040950Y0139757D01*
X0040990Y0139638D01*
X0041028Y0139519D01*
X0041061Y0139399D01*
X0041090Y0139277D01*
X0041116Y0139155D01*
X0041138Y0139032D01*
X0041155Y0138908D01*
X0041169Y0138784D01*
X0041179Y0138660D01*
X0041185Y0138535D01*
X0041187Y0138410D01*
X0041185Y0138285D01*
X0041179Y0138160D01*
X0041169Y0138036D01*
X0041155Y0137912D01*
X0041138Y0137788D01*
X0041116Y0137665D01*
X0041090Y0137543D01*
X0041061Y0137421D01*
X0041028Y0137301D01*
X0040990Y0137182D01*
X0040950Y0137063D01*
X0040905Y0136947D01*
X0040857Y0136832D01*
X0040805Y0136718D01*
X0040749Y0136606D01*
X0040690Y0136496D01*
X0040628Y0136388D01*
X0040562Y0136281D01*
X0040493Y0136177D01*
X0040420Y0136076D01*
X0040345Y0135976D01*
X0040266Y0135879D01*
X0040184Y0135785D01*
X0040099Y0135693D01*
X0040012Y0135604D01*
X0039921Y0135518D01*
X0039828Y0135435D01*
X0039732Y0135354D01*
X0039634Y0135277D01*
X0039534Y0135203D01*
X0039431Y0135132D01*
X0039326Y0135065D01*
X0039218Y0135000D01*
X0039109Y0134940D01*
X0038998Y0134882D01*
X0038885Y0134829D01*
X0038771Y0134779D01*
X0038655Y0134732D01*
X0038538Y0134690D01*
X0038419Y0134651D01*
X0038299Y0134615D01*
X0038178Y0134584D01*
X0038056Y0134556D01*
X0037934Y0134533D01*
X0037810Y0134513D01*
X0037686Y0134497D01*
X0037562Y0134485D01*
X0037437Y0134477D01*
X0037312Y0134473D01*
X0037188Y0134473D01*
X0037063Y0134477D01*
X0036938Y0134485D01*
X0036814Y0134497D01*
X0036690Y0134513D01*
X0036566Y0134533D01*
X0036444Y0134556D01*
X0036322Y0134584D01*
X0036201Y0134615D01*
X0036081Y0134651D01*
X0035962Y0134690D01*
X0035845Y0134732D01*
X0035729Y0134779D01*
X0035615Y0134829D01*
X0035502Y0134882D01*
X0035391Y0134940D01*
X0035281Y0135000D01*
X0035174Y0135065D01*
X0035069Y0135132D01*
X0034966Y0135203D01*
X0034866Y0135277D01*
X0034768Y0135354D01*
X0034672Y0135435D01*
X0034579Y0135518D01*
X0034488Y0135604D01*
X0034401Y0135693D01*
X0034316Y0135785D01*
X0034234Y0135879D01*
X0034155Y0135976D01*
X0034080Y0136076D01*
X0034007Y0136177D01*
X0033938Y0136281D01*
X0033872Y0136388D01*
X0033810Y0136496D01*
X0033751Y0136606D01*
X0033695Y0136718D01*
X0033643Y0136832D01*
X0033595Y0136947D01*
X0033550Y0137063D01*
X0033510Y0137182D01*
X0033472Y0137301D01*
X0033439Y0137421D01*
X0033410Y0137543D01*
X0033384Y0137665D01*
X0033362Y0137788D01*
X0033345Y0137912D01*
X0033331Y0138036D01*
X0033321Y0138160D01*
X0033315Y0138285D01*
X0033313Y0138410D01*
X0101813Y0138410D02*
X0101815Y0138535D01*
X0101821Y0138660D01*
X0101831Y0138784D01*
X0101845Y0138908D01*
X0101862Y0139032D01*
X0101884Y0139155D01*
X0101910Y0139277D01*
X0101939Y0139399D01*
X0101972Y0139519D01*
X0102010Y0139638D01*
X0102050Y0139757D01*
X0102095Y0139873D01*
X0102143Y0139988D01*
X0102195Y0140102D01*
X0102251Y0140214D01*
X0102310Y0140324D01*
X0102372Y0140432D01*
X0102438Y0140539D01*
X0102507Y0140643D01*
X0102580Y0140744D01*
X0102655Y0140844D01*
X0102734Y0140941D01*
X0102816Y0141035D01*
X0102901Y0141127D01*
X0102988Y0141216D01*
X0103079Y0141302D01*
X0103172Y0141385D01*
X0103268Y0141466D01*
X0103366Y0141543D01*
X0103466Y0141617D01*
X0103569Y0141688D01*
X0103674Y0141755D01*
X0103782Y0141820D01*
X0103891Y0141880D01*
X0104002Y0141938D01*
X0104115Y0141991D01*
X0104229Y0142041D01*
X0104345Y0142088D01*
X0104462Y0142130D01*
X0104581Y0142169D01*
X0104701Y0142205D01*
X0104822Y0142236D01*
X0104944Y0142264D01*
X0105066Y0142287D01*
X0105190Y0142307D01*
X0105314Y0142323D01*
X0105438Y0142335D01*
X0105563Y0142343D01*
X0105688Y0142347D01*
X0105812Y0142347D01*
X0105937Y0142343D01*
X0106062Y0142335D01*
X0106186Y0142323D01*
X0106310Y0142307D01*
X0106434Y0142287D01*
X0106556Y0142264D01*
X0106678Y0142236D01*
X0106799Y0142205D01*
X0106919Y0142169D01*
X0107038Y0142130D01*
X0107155Y0142088D01*
X0107271Y0142041D01*
X0107385Y0141991D01*
X0107498Y0141938D01*
X0107609Y0141880D01*
X0107719Y0141820D01*
X0107826Y0141755D01*
X0107931Y0141688D01*
X0108034Y0141617D01*
X0108134Y0141543D01*
X0108232Y0141466D01*
X0108328Y0141385D01*
X0108421Y0141302D01*
X0108512Y0141216D01*
X0108599Y0141127D01*
X0108684Y0141035D01*
X0108766Y0140941D01*
X0108845Y0140844D01*
X0108920Y0140744D01*
X0108993Y0140643D01*
X0109062Y0140539D01*
X0109128Y0140432D01*
X0109190Y0140324D01*
X0109249Y0140214D01*
X0109305Y0140102D01*
X0109357Y0139988D01*
X0109405Y0139873D01*
X0109450Y0139757D01*
X0109490Y0139638D01*
X0109528Y0139519D01*
X0109561Y0139399D01*
X0109590Y0139277D01*
X0109616Y0139155D01*
X0109638Y0139032D01*
X0109655Y0138908D01*
X0109669Y0138784D01*
X0109679Y0138660D01*
X0109685Y0138535D01*
X0109687Y0138410D01*
X0109685Y0138285D01*
X0109679Y0138160D01*
X0109669Y0138036D01*
X0109655Y0137912D01*
X0109638Y0137788D01*
X0109616Y0137665D01*
X0109590Y0137543D01*
X0109561Y0137421D01*
X0109528Y0137301D01*
X0109490Y0137182D01*
X0109450Y0137063D01*
X0109405Y0136947D01*
X0109357Y0136832D01*
X0109305Y0136718D01*
X0109249Y0136606D01*
X0109190Y0136496D01*
X0109128Y0136388D01*
X0109062Y0136281D01*
X0108993Y0136177D01*
X0108920Y0136076D01*
X0108845Y0135976D01*
X0108766Y0135879D01*
X0108684Y0135785D01*
X0108599Y0135693D01*
X0108512Y0135604D01*
X0108421Y0135518D01*
X0108328Y0135435D01*
X0108232Y0135354D01*
X0108134Y0135277D01*
X0108034Y0135203D01*
X0107931Y0135132D01*
X0107826Y0135065D01*
X0107718Y0135000D01*
X0107609Y0134940D01*
X0107498Y0134882D01*
X0107385Y0134829D01*
X0107271Y0134779D01*
X0107155Y0134732D01*
X0107038Y0134690D01*
X0106919Y0134651D01*
X0106799Y0134615D01*
X0106678Y0134584D01*
X0106556Y0134556D01*
X0106434Y0134533D01*
X0106310Y0134513D01*
X0106186Y0134497D01*
X0106062Y0134485D01*
X0105937Y0134477D01*
X0105812Y0134473D01*
X0105688Y0134473D01*
X0105563Y0134477D01*
X0105438Y0134485D01*
X0105314Y0134497D01*
X0105190Y0134513D01*
X0105066Y0134533D01*
X0104944Y0134556D01*
X0104822Y0134584D01*
X0104701Y0134615D01*
X0104581Y0134651D01*
X0104462Y0134690D01*
X0104345Y0134732D01*
X0104229Y0134779D01*
X0104115Y0134829D01*
X0104002Y0134882D01*
X0103891Y0134940D01*
X0103781Y0135000D01*
X0103674Y0135065D01*
X0103569Y0135132D01*
X0103466Y0135203D01*
X0103366Y0135277D01*
X0103268Y0135354D01*
X0103172Y0135435D01*
X0103079Y0135518D01*
X0102988Y0135604D01*
X0102901Y0135693D01*
X0102816Y0135785D01*
X0102734Y0135879D01*
X0102655Y0135976D01*
X0102580Y0136076D01*
X0102507Y0136177D01*
X0102438Y0136281D01*
X0102372Y0136388D01*
X0102310Y0136496D01*
X0102251Y0136606D01*
X0102195Y0136718D01*
X0102143Y0136832D01*
X0102095Y0136947D01*
X0102050Y0137063D01*
X0102010Y0137182D01*
X0101972Y0137301D01*
X0101939Y0137421D01*
X0101910Y0137543D01*
X0101884Y0137665D01*
X0101862Y0137788D01*
X0101845Y0137912D01*
X0101831Y0138036D01*
X0101821Y0138160D01*
X0101815Y0138285D01*
X0101813Y0138410D01*
X0101813Y0110850D02*
X0101815Y0110975D01*
X0101821Y0111100D01*
X0101831Y0111224D01*
X0101845Y0111348D01*
X0101862Y0111472D01*
X0101884Y0111595D01*
X0101910Y0111717D01*
X0101939Y0111839D01*
X0101972Y0111959D01*
X0102010Y0112078D01*
X0102050Y0112197D01*
X0102095Y0112313D01*
X0102143Y0112428D01*
X0102195Y0112542D01*
X0102251Y0112654D01*
X0102310Y0112764D01*
X0102372Y0112872D01*
X0102438Y0112979D01*
X0102507Y0113083D01*
X0102580Y0113184D01*
X0102655Y0113284D01*
X0102734Y0113381D01*
X0102816Y0113475D01*
X0102901Y0113567D01*
X0102988Y0113656D01*
X0103079Y0113742D01*
X0103172Y0113825D01*
X0103268Y0113906D01*
X0103366Y0113983D01*
X0103466Y0114057D01*
X0103569Y0114128D01*
X0103674Y0114195D01*
X0103782Y0114260D01*
X0103891Y0114320D01*
X0104002Y0114378D01*
X0104115Y0114431D01*
X0104229Y0114481D01*
X0104345Y0114528D01*
X0104462Y0114570D01*
X0104581Y0114609D01*
X0104701Y0114645D01*
X0104822Y0114676D01*
X0104944Y0114704D01*
X0105066Y0114727D01*
X0105190Y0114747D01*
X0105314Y0114763D01*
X0105438Y0114775D01*
X0105563Y0114783D01*
X0105688Y0114787D01*
X0105812Y0114787D01*
X0105937Y0114783D01*
X0106062Y0114775D01*
X0106186Y0114763D01*
X0106310Y0114747D01*
X0106434Y0114727D01*
X0106556Y0114704D01*
X0106678Y0114676D01*
X0106799Y0114645D01*
X0106919Y0114609D01*
X0107038Y0114570D01*
X0107155Y0114528D01*
X0107271Y0114481D01*
X0107385Y0114431D01*
X0107498Y0114378D01*
X0107609Y0114320D01*
X0107719Y0114260D01*
X0107826Y0114195D01*
X0107931Y0114128D01*
X0108034Y0114057D01*
X0108134Y0113983D01*
X0108232Y0113906D01*
X0108328Y0113825D01*
X0108421Y0113742D01*
X0108512Y0113656D01*
X0108599Y0113567D01*
X0108684Y0113475D01*
X0108766Y0113381D01*
X0108845Y0113284D01*
X0108920Y0113184D01*
X0108993Y0113083D01*
X0109062Y0112979D01*
X0109128Y0112872D01*
X0109190Y0112764D01*
X0109249Y0112654D01*
X0109305Y0112542D01*
X0109357Y0112428D01*
X0109405Y0112313D01*
X0109450Y0112197D01*
X0109490Y0112078D01*
X0109528Y0111959D01*
X0109561Y0111839D01*
X0109590Y0111717D01*
X0109616Y0111595D01*
X0109638Y0111472D01*
X0109655Y0111348D01*
X0109669Y0111224D01*
X0109679Y0111100D01*
X0109685Y0110975D01*
X0109687Y0110850D01*
X0109685Y0110725D01*
X0109679Y0110600D01*
X0109669Y0110476D01*
X0109655Y0110352D01*
X0109638Y0110228D01*
X0109616Y0110105D01*
X0109590Y0109983D01*
X0109561Y0109861D01*
X0109528Y0109741D01*
X0109490Y0109622D01*
X0109450Y0109503D01*
X0109405Y0109387D01*
X0109357Y0109272D01*
X0109305Y0109158D01*
X0109249Y0109046D01*
X0109190Y0108936D01*
X0109128Y0108828D01*
X0109062Y0108721D01*
X0108993Y0108617D01*
X0108920Y0108516D01*
X0108845Y0108416D01*
X0108766Y0108319D01*
X0108684Y0108225D01*
X0108599Y0108133D01*
X0108512Y0108044D01*
X0108421Y0107958D01*
X0108328Y0107875D01*
X0108232Y0107794D01*
X0108134Y0107717D01*
X0108034Y0107643D01*
X0107931Y0107572D01*
X0107826Y0107505D01*
X0107718Y0107440D01*
X0107609Y0107380D01*
X0107498Y0107322D01*
X0107385Y0107269D01*
X0107271Y0107219D01*
X0107155Y0107172D01*
X0107038Y0107130D01*
X0106919Y0107091D01*
X0106799Y0107055D01*
X0106678Y0107024D01*
X0106556Y0106996D01*
X0106434Y0106973D01*
X0106310Y0106953D01*
X0106186Y0106937D01*
X0106062Y0106925D01*
X0105937Y0106917D01*
X0105812Y0106913D01*
X0105688Y0106913D01*
X0105563Y0106917D01*
X0105438Y0106925D01*
X0105314Y0106937D01*
X0105190Y0106953D01*
X0105066Y0106973D01*
X0104944Y0106996D01*
X0104822Y0107024D01*
X0104701Y0107055D01*
X0104581Y0107091D01*
X0104462Y0107130D01*
X0104345Y0107172D01*
X0104229Y0107219D01*
X0104115Y0107269D01*
X0104002Y0107322D01*
X0103891Y0107380D01*
X0103781Y0107440D01*
X0103674Y0107505D01*
X0103569Y0107572D01*
X0103466Y0107643D01*
X0103366Y0107717D01*
X0103268Y0107794D01*
X0103172Y0107875D01*
X0103079Y0107958D01*
X0102988Y0108044D01*
X0102901Y0108133D01*
X0102816Y0108225D01*
X0102734Y0108319D01*
X0102655Y0108416D01*
X0102580Y0108516D01*
X0102507Y0108617D01*
X0102438Y0108721D01*
X0102372Y0108828D01*
X0102310Y0108936D01*
X0102251Y0109046D01*
X0102195Y0109158D01*
X0102143Y0109272D01*
X0102095Y0109387D01*
X0102050Y0109503D01*
X0102010Y0109622D01*
X0101972Y0109741D01*
X0101939Y0109861D01*
X0101910Y0109983D01*
X0101884Y0110105D01*
X0101862Y0110228D01*
X0101845Y0110352D01*
X0101831Y0110476D01*
X0101821Y0110600D01*
X0101815Y0110725D01*
X0101813Y0110850D01*
D11*
X0103540Y0100547D02*
X0103540Y0097712D01*
X0104107Y0097144D01*
X0105241Y0097144D01*
X0105809Y0097712D01*
X0105809Y0100547D01*
X0107223Y0099980D02*
X0107790Y0100547D01*
X0108925Y0100547D01*
X0109492Y0099980D01*
X0109492Y0099413D01*
X0108925Y0098846D01*
X0109492Y0098279D01*
X0109492Y0097712D01*
X0108925Y0097144D01*
X0107790Y0097144D01*
X0107223Y0097712D01*
X0108357Y0098846D02*
X0108925Y0098846D01*
X0096185Y0082703D02*
X0095050Y0082703D01*
X0094483Y0082136D01*
X0093069Y0082136D02*
X0092501Y0082703D01*
X0091367Y0082703D01*
X0090800Y0082136D01*
X0090800Y0079867D01*
X0091367Y0079300D01*
X0092501Y0079300D01*
X0093069Y0079867D01*
X0094483Y0079300D02*
X0096752Y0081569D01*
X0096752Y0082136D01*
X0096185Y0082703D01*
X0096752Y0079300D02*
X0094483Y0079300D01*
X0095867Y0074703D02*
X0095300Y0074136D01*
X0095300Y0071867D01*
X0095867Y0071300D01*
X0097001Y0071300D01*
X0097569Y0071867D01*
X0098983Y0071300D02*
X0101252Y0071300D01*
X0100117Y0071300D02*
X0100117Y0074703D01*
X0098983Y0073569D01*
X0097569Y0074136D02*
X0097001Y0074703D01*
X0095867Y0074703D01*
X0102500Y0079000D02*
X0102500Y0069000D01*
X0102502Y0068940D01*
X0102507Y0068879D01*
X0102516Y0068820D01*
X0102529Y0068761D01*
X0102545Y0068702D01*
X0102565Y0068645D01*
X0102588Y0068590D01*
X0102615Y0068535D01*
X0102644Y0068483D01*
X0102677Y0068432D01*
X0102713Y0068383D01*
X0102751Y0068337D01*
X0102793Y0068293D01*
X0102837Y0068251D01*
X0102883Y0068213D01*
X0102932Y0068177D01*
X0102983Y0068144D01*
X0103035Y0068115D01*
X0103090Y0068088D01*
X0103145Y0068065D01*
X0103202Y0068045D01*
X0103261Y0068029D01*
X0103320Y0068016D01*
X0103379Y0068007D01*
X0103440Y0068002D01*
X0103500Y0068000D01*
X0109500Y0068000D01*
X0109560Y0068002D01*
X0109621Y0068007D01*
X0109680Y0068016D01*
X0109739Y0068029D01*
X0109798Y0068045D01*
X0109855Y0068065D01*
X0109910Y0068088D01*
X0109965Y0068115D01*
X0110017Y0068144D01*
X0110068Y0068177D01*
X0110117Y0068213D01*
X0110163Y0068251D01*
X0110207Y0068293D01*
X0110249Y0068337D01*
X0110287Y0068383D01*
X0110323Y0068432D01*
X0110356Y0068483D01*
X0110385Y0068535D01*
X0110412Y0068590D01*
X0110435Y0068645D01*
X0110455Y0068702D01*
X0110471Y0068761D01*
X0110484Y0068820D01*
X0110493Y0068879D01*
X0110498Y0068940D01*
X0110500Y0069000D01*
X0110500Y0079000D01*
X0110498Y0079060D01*
X0110493Y0079121D01*
X0110484Y0079180D01*
X0110471Y0079239D01*
X0110455Y0079298D01*
X0110435Y0079355D01*
X0110412Y0079410D01*
X0110385Y0079465D01*
X0110356Y0079517D01*
X0110323Y0079568D01*
X0110287Y0079617D01*
X0110249Y0079663D01*
X0110207Y0079707D01*
X0110163Y0079749D01*
X0110117Y0079787D01*
X0110068Y0079823D01*
X0110017Y0079856D01*
X0109965Y0079885D01*
X0109910Y0079912D01*
X0109855Y0079935D01*
X0109798Y0079955D01*
X0109739Y0079971D01*
X0109680Y0079984D01*
X0109621Y0079993D01*
X0109560Y0079998D01*
X0109500Y0080000D01*
X0103500Y0080000D01*
X0103440Y0079998D01*
X0103379Y0079993D01*
X0103320Y0079984D01*
X0103261Y0079971D01*
X0103202Y0079955D01*
X0103145Y0079935D01*
X0103090Y0079912D01*
X0103035Y0079885D01*
X0102983Y0079856D01*
X0102932Y0079823D01*
X0102883Y0079787D01*
X0102837Y0079749D01*
X0102793Y0079707D01*
X0102751Y0079663D01*
X0102713Y0079617D01*
X0102677Y0079568D01*
X0102644Y0079517D01*
X0102615Y0079465D01*
X0102588Y0079410D01*
X0102565Y0079355D01*
X0102545Y0079298D01*
X0102529Y0079239D01*
X0102516Y0079180D01*
X0102507Y0079121D01*
X0102502Y0079060D01*
X0102500Y0079000D01*
X0111797Y0077301D02*
X0112931Y0076166D01*
X0112364Y0074752D02*
X0113499Y0074752D01*
X0114066Y0074185D01*
X0114066Y0072483D01*
X0115200Y0072483D02*
X0111797Y0072483D01*
X0111797Y0074185D01*
X0112364Y0074752D01*
X0111797Y0077301D02*
X0115200Y0077301D01*
X0115200Y0078435D02*
X0115200Y0076166D01*
X0114633Y0070501D02*
X0111797Y0070501D01*
X0111797Y0069934D02*
X0111797Y0071069D01*
X0114633Y0070501D02*
X0115200Y0069934D01*
X0115200Y0069367D01*
X0114633Y0068800D01*
X0126297Y0068279D02*
X0126297Y0067144D01*
X0126864Y0066577D01*
X0126297Y0068279D02*
X0126864Y0068846D01*
X0127431Y0068846D01*
X0129700Y0066577D01*
X0129700Y0068846D01*
X0129133Y0070260D02*
X0126864Y0072529D01*
X0129133Y0072529D01*
X0129700Y0071962D01*
X0129700Y0070827D01*
X0129133Y0070260D01*
X0126864Y0070260D01*
X0126297Y0070827D01*
X0126297Y0071962D01*
X0126864Y0072529D01*
X0126864Y0073943D02*
X0126297Y0074511D01*
X0126297Y0075645D01*
X0126864Y0076212D01*
X0127431Y0076212D01*
X0129700Y0073943D01*
X0129700Y0076212D01*
X0129133Y0077627D02*
X0129700Y0078194D01*
X0129700Y0079328D01*
X0129133Y0079895D01*
X0128566Y0079895D01*
X0127999Y0079328D01*
X0127999Y0078761D01*
X0127999Y0079328D02*
X0127431Y0079895D01*
X0126864Y0079895D01*
X0126297Y0079328D01*
X0126297Y0078194D01*
X0126864Y0077627D01*
X0127999Y0084993D02*
X0127431Y0085560D01*
X0127431Y0087261D01*
X0126297Y0087261D02*
X0129700Y0087261D01*
X0129700Y0085560D01*
X0129133Y0084993D01*
X0127999Y0084993D01*
X0129133Y0088676D02*
X0128566Y0089243D01*
X0128566Y0090945D01*
X0127999Y0090945D02*
X0129700Y0090945D01*
X0129700Y0089243D01*
X0129133Y0088676D01*
X0127431Y0089243D02*
X0127431Y0090377D01*
X0127999Y0090945D01*
X0127431Y0092359D02*
X0127431Y0094061D01*
X0127999Y0094628D01*
X0129700Y0094628D01*
X0130834Y0096042D02*
X0130834Y0096609D01*
X0130267Y0097177D01*
X0127431Y0097177D01*
X0126297Y0097177D02*
X0125730Y0097177D01*
X0127431Y0098498D02*
X0129133Y0098498D01*
X0129700Y0099065D01*
X0129700Y0100766D01*
X0127431Y0100766D01*
X0126297Y0102181D02*
X0126297Y0102748D01*
X0129700Y0102748D01*
X0129700Y0102181D02*
X0129700Y0103315D01*
X0129700Y0104636D02*
X0129700Y0105771D01*
X0129700Y0105203D02*
X0127431Y0105203D01*
X0127431Y0104636D01*
X0126297Y0105203D02*
X0125730Y0105203D01*
X0127999Y0107092D02*
X0129133Y0107092D01*
X0129700Y0107659D01*
X0129700Y0108793D01*
X0129133Y0109360D01*
X0127999Y0109360D01*
X0127431Y0108793D01*
X0127431Y0107659D01*
X0127999Y0107092D01*
X0127999Y0110775D02*
X0127431Y0111342D01*
X0127431Y0113043D01*
X0126297Y0113043D02*
X0129700Y0113043D01*
X0129700Y0111342D01*
X0129133Y0110775D01*
X0127999Y0110775D01*
X0127999Y0114458D02*
X0127431Y0115025D01*
X0127431Y0116159D01*
X0127999Y0116727D01*
X0128566Y0116727D01*
X0128566Y0114458D01*
X0129133Y0114458D02*
X0127999Y0114458D01*
X0129133Y0114458D02*
X0129700Y0115025D01*
X0129700Y0116159D01*
X0129700Y0118141D02*
X0129700Y0119843D01*
X0129133Y0120410D01*
X0128566Y0119843D01*
X0128566Y0118708D01*
X0127999Y0118141D01*
X0127431Y0118708D01*
X0127431Y0120410D01*
X0127431Y0121824D02*
X0127431Y0122391D01*
X0129700Y0122391D01*
X0129700Y0121824D02*
X0129700Y0122959D01*
X0129133Y0124280D02*
X0127999Y0124280D01*
X0127431Y0124847D01*
X0127431Y0126548D01*
X0130267Y0126548D01*
X0130834Y0125981D01*
X0130834Y0125414D01*
X0129700Y0124847D02*
X0129700Y0126548D01*
X0129700Y0127963D02*
X0127431Y0127963D01*
X0127431Y0129664D01*
X0127999Y0130231D01*
X0129700Y0130231D01*
X0129700Y0131646D02*
X0129700Y0133347D01*
X0129133Y0133915D01*
X0128566Y0133347D01*
X0128566Y0132213D01*
X0127999Y0131646D01*
X0127431Y0132213D01*
X0127431Y0133915D01*
X0126297Y0139012D02*
X0129700Y0139012D01*
X0129700Y0141281D01*
X0129700Y0142695D02*
X0129700Y0144964D01*
X0129133Y0146379D02*
X0129700Y0146946D01*
X0129700Y0148080D01*
X0129133Y0148647D01*
X0129133Y0146379D02*
X0126864Y0146379D01*
X0126297Y0146946D01*
X0126297Y0148080D01*
X0126864Y0148647D01*
X0126297Y0142695D02*
X0129700Y0142695D01*
X0129700Y0124847D02*
X0129133Y0124280D01*
X0126297Y0122391D02*
X0125730Y0122391D01*
X0127431Y0092359D02*
X0129700Y0092359D01*
X0128566Y0061573D02*
X0127431Y0061573D01*
X0126297Y0060439D01*
X0127431Y0059024D02*
X0127431Y0057323D01*
X0127999Y0056755D01*
X0129133Y0056755D01*
X0129700Y0057323D01*
X0129700Y0059024D01*
X0129700Y0060439D02*
X0128566Y0061573D01*
X0129700Y0055434D02*
X0128566Y0054300D01*
X0127431Y0054300D01*
X0126297Y0055434D01*
X0073569Y0067800D02*
X0072434Y0068934D01*
X0073001Y0068934D02*
X0071300Y0068934D01*
X0071300Y0067800D02*
X0071300Y0071203D01*
X0073001Y0071203D01*
X0073569Y0070636D01*
X0073569Y0069501D01*
X0073001Y0068934D01*
X0064569Y0071203D02*
X0062300Y0071203D01*
X0063434Y0071203D02*
X0063434Y0067800D01*
X0055569Y0068367D02*
X0055569Y0069501D01*
X0054434Y0069501D01*
X0053300Y0068367D02*
X0053867Y0067800D01*
X0055001Y0067800D01*
X0055569Y0068367D01*
X0055569Y0070636D02*
X0055001Y0071203D01*
X0053867Y0071203D01*
X0053300Y0070636D01*
X0053300Y0068367D01*
X0041200Y0073300D02*
X0037797Y0073300D01*
X0037797Y0075001D01*
X0038364Y0075569D01*
X0039499Y0075569D01*
X0040066Y0075001D01*
X0040066Y0073300D01*
X0040066Y0074434D02*
X0041200Y0075569D01*
X0041200Y0076983D02*
X0038931Y0079252D01*
X0038364Y0079252D01*
X0037797Y0078685D01*
X0037797Y0077550D01*
X0038364Y0076983D01*
X0041200Y0076983D02*
X0041200Y0079252D01*
X0040133Y0085934D02*
X0037864Y0085934D01*
X0037297Y0086501D01*
X0037297Y0087635D01*
X0037864Y0088202D01*
X0038999Y0089617D02*
X0038999Y0091885D01*
X0040700Y0091318D02*
X0037297Y0091318D01*
X0038999Y0089617D01*
X0040133Y0088202D02*
X0040700Y0087635D01*
X0040700Y0086501D01*
X0040133Y0085934D01*
X0031200Y0079252D02*
X0031200Y0076983D01*
X0031200Y0078117D02*
X0027797Y0078117D01*
X0028931Y0076983D01*
X0028364Y0075569D02*
X0029499Y0075569D01*
X0030066Y0075001D01*
X0030066Y0073300D01*
X0031200Y0073300D02*
X0027797Y0073300D01*
X0027797Y0075001D01*
X0028364Y0075569D01*
X0030066Y0074434D02*
X0031200Y0075569D01*
X0024685Y0068703D02*
X0025252Y0068136D01*
X0025252Y0067569D01*
X0024685Y0067001D01*
X0025252Y0066434D01*
X0025252Y0065867D01*
X0024685Y0065300D01*
X0023550Y0065300D01*
X0022983Y0065867D01*
X0021569Y0065867D02*
X0021001Y0065300D01*
X0019867Y0065300D01*
X0019300Y0065867D01*
X0019300Y0068136D01*
X0019867Y0068703D01*
X0021001Y0068703D01*
X0021569Y0068136D01*
X0022983Y0068136D02*
X0023550Y0068703D01*
X0024685Y0068703D01*
X0024685Y0067001D02*
X0024117Y0067001D01*
X0018551Y0060003D02*
X0018551Y0056600D01*
X0017417Y0056600D02*
X0019685Y0056600D01*
X0017417Y0058869D02*
X0018551Y0060003D01*
X0016002Y0060003D02*
X0014868Y0060003D01*
X0015435Y0060003D02*
X0015435Y0057167D01*
X0014868Y0056600D01*
X0014301Y0056600D01*
X0013734Y0057167D01*
X0012823Y0083841D02*
X0009987Y0083841D01*
X0009987Y0086110D02*
X0012823Y0086110D01*
X0013390Y0085543D01*
X0013390Y0084409D01*
X0012823Y0083841D01*
X0013390Y0087525D02*
X0013390Y0089793D01*
X0013390Y0088659D02*
X0009987Y0088659D01*
X0011121Y0087525D01*
X0028300Y0098367D02*
X0028867Y0097800D01*
X0030001Y0097800D01*
X0030569Y0098367D01*
X0031983Y0098367D02*
X0032550Y0097800D01*
X0033685Y0097800D01*
X0034252Y0098367D01*
X0034252Y0099501D01*
X0033685Y0100069D01*
X0033117Y0100069D01*
X0031983Y0099501D01*
X0031983Y0101203D01*
X0034252Y0101203D01*
X0030569Y0100636D02*
X0030001Y0101203D01*
X0028867Y0101203D01*
X0028300Y0100636D01*
X0028300Y0098367D01*
X0029133Y0111300D02*
X0026297Y0111300D01*
X0026297Y0113569D02*
X0029133Y0113569D01*
X0029700Y0113001D01*
X0029700Y0111867D01*
X0029133Y0111300D01*
X0029700Y0114983D02*
X0027431Y0117252D01*
X0026864Y0117252D01*
X0026297Y0116685D01*
X0026297Y0115550D01*
X0026864Y0114983D01*
X0029700Y0114983D02*
X0029700Y0117252D01*
X0021685Y0134300D02*
X0020550Y0134300D01*
X0019983Y0134867D01*
X0019983Y0136001D01*
X0021685Y0136001D01*
X0022252Y0135434D01*
X0022252Y0134867D01*
X0021685Y0134300D01*
X0019983Y0136001D02*
X0021117Y0137136D01*
X0022252Y0137703D01*
X0018569Y0137136D02*
X0018001Y0137703D01*
X0016867Y0137703D01*
X0016300Y0137136D01*
X0016300Y0134867D01*
X0016867Y0134300D01*
X0018001Y0134300D01*
X0018569Y0134867D01*
X0017685Y0145300D02*
X0016550Y0145300D01*
X0015983Y0145867D01*
X0015983Y0147001D01*
X0016550Y0147569D01*
X0017685Y0147569D01*
X0018252Y0147001D01*
X0018252Y0146434D01*
X0015983Y0146434D01*
X0014569Y0147001D02*
X0014569Y0148136D01*
X0014001Y0148703D01*
X0012300Y0148703D01*
X0012300Y0145300D01*
X0012300Y0146434D02*
X0014001Y0146434D01*
X0014569Y0147001D01*
X0013434Y0146434D02*
X0014569Y0145300D01*
X0019666Y0147569D02*
X0020801Y0145300D01*
X0021935Y0147569D01*
X0027033Y0148136D02*
X0027600Y0148703D01*
X0028734Y0148703D01*
X0029301Y0148136D01*
X0029301Y0147569D01*
X0027033Y0145300D01*
X0029301Y0145300D01*
D12*
X0029000Y0064000D02*
X0024000Y0064000D01*
X0021500Y0061500D01*
X0021500Y0056500D01*
X0024000Y0054000D01*
X0029000Y0054000D01*
X0031500Y0056500D01*
X0034000Y0054000D01*
X0039000Y0054000D01*
X0041500Y0056500D01*
X0044000Y0054000D01*
X0049000Y0054000D01*
X0051500Y0056500D01*
X0054000Y0054000D01*
X0059000Y0054000D01*
X0061500Y0056500D01*
X0064000Y0054000D01*
X0069000Y0054000D01*
X0071500Y0056500D01*
X0074000Y0054000D01*
X0079000Y0054000D01*
X0081500Y0056500D01*
X0084000Y0054000D01*
X0089000Y0054000D01*
X0091500Y0056500D01*
X0094000Y0054000D01*
X0099000Y0054000D01*
X0101500Y0056500D01*
X0104000Y0054000D01*
X0109000Y0054000D01*
X0111500Y0056500D01*
X0114000Y0054000D01*
X0119000Y0054000D01*
X0121500Y0056500D01*
X0121500Y0061500D01*
X0119000Y0064000D01*
X0114000Y0064000D01*
X0111500Y0061500D01*
X0109000Y0064000D01*
X0104000Y0064000D01*
X0101500Y0061500D01*
X0099000Y0064000D01*
X0094000Y0064000D01*
X0091500Y0061500D01*
X0089000Y0064000D01*
X0084000Y0064000D01*
X0081500Y0061500D01*
X0079000Y0064000D01*
X0074000Y0064000D01*
X0071500Y0061500D01*
X0069000Y0064000D01*
X0064000Y0064000D01*
X0061500Y0061500D01*
X0059000Y0064000D01*
X0054000Y0064000D01*
X0051500Y0061500D01*
X0049000Y0064000D01*
X0044000Y0064000D01*
X0041500Y0061500D01*
X0039000Y0064000D01*
X0034000Y0064000D01*
X0031500Y0061500D01*
X0029000Y0064000D01*
X0118896Y0066900D02*
X0118896Y0069702D01*
X0118896Y0068301D02*
X0123100Y0068301D01*
X0123100Y0071504D02*
X0123100Y0072905D01*
X0123100Y0072205D02*
X0118896Y0072205D01*
X0118896Y0072905D02*
X0118896Y0071504D01*
X0118896Y0074573D02*
X0123100Y0077376D01*
X0118896Y0077376D01*
X0118896Y0079177D02*
X0119597Y0079177D01*
X0120998Y0080578D01*
X0123100Y0080578D01*
X0120998Y0080578D02*
X0119597Y0081980D01*
X0118896Y0081980D01*
X0120298Y0083781D02*
X0118896Y0085182D01*
X0123100Y0085182D01*
X0123100Y0083781D02*
X0123100Y0086583D01*
X0122399Y0088385D02*
X0123100Y0089086D01*
X0123100Y0090487D01*
X0122399Y0091187D01*
X0119597Y0091187D02*
X0118896Y0090487D01*
X0118896Y0089086D01*
X0119597Y0088385D01*
X0122399Y0088385D01*
X0122399Y0097593D02*
X0123100Y0098293D01*
X0123100Y0099695D01*
X0122399Y0100395D01*
X0121699Y0100395D01*
X0120998Y0099695D01*
X0120998Y0098293D01*
X0120298Y0097593D01*
X0119597Y0097593D01*
X0118896Y0098293D01*
X0118896Y0099695D01*
X0119597Y0100395D01*
X0118896Y0102197D02*
X0118896Y0104299D01*
X0119597Y0104999D01*
X0120998Y0104999D01*
X0121699Y0104299D01*
X0121699Y0102197D01*
X0123100Y0102197D02*
X0118896Y0102197D01*
X0118896Y0106801D02*
X0118896Y0108202D01*
X0118896Y0107501D02*
X0123100Y0107501D01*
X0123100Y0106801D02*
X0123100Y0108202D01*
X0123100Y0114474D02*
X0118896Y0114474D01*
X0118896Y0116576D01*
X0119597Y0117276D01*
X0120298Y0117276D01*
X0120998Y0116576D01*
X0120998Y0114474D01*
X0120998Y0116576D02*
X0121699Y0117276D01*
X0122399Y0117276D01*
X0123100Y0116576D01*
X0123100Y0114474D01*
X0123100Y0119078D02*
X0120298Y0119078D01*
X0121699Y0119078D02*
X0120298Y0120479D01*
X0120298Y0121180D01*
X0120998Y0122914D02*
X0120298Y0123615D01*
X0120298Y0125016D01*
X0120998Y0125717D01*
X0121699Y0125717D01*
X0121699Y0122914D01*
X0122399Y0122914D02*
X0120998Y0122914D01*
X0122399Y0122914D02*
X0123100Y0123615D01*
X0123100Y0125016D01*
X0122399Y0127518D02*
X0121699Y0128219D01*
X0121699Y0130321D01*
X0120998Y0130321D02*
X0120298Y0129620D01*
X0120298Y0128219D01*
X0122399Y0127518D02*
X0123100Y0128219D01*
X0123100Y0130321D01*
X0120998Y0130321D01*
X0121699Y0132122D02*
X0120298Y0134224D01*
X0120998Y0135959D02*
X0122399Y0135959D01*
X0123100Y0136659D01*
X0123100Y0138061D01*
X0122399Y0138761D01*
X0120998Y0138761D01*
X0120298Y0138061D01*
X0120298Y0136659D01*
X0120998Y0135959D01*
X0123100Y0134224D02*
X0121699Y0132122D01*
X0123100Y0132122D02*
X0118896Y0132122D01*
X0120298Y0140563D02*
X0122399Y0140563D01*
X0123100Y0141263D01*
X0123100Y0143365D01*
X0120298Y0143365D01*
X0120298Y0145167D02*
X0120298Y0146568D01*
X0119597Y0145867D02*
X0122399Y0145867D01*
X0123100Y0146568D01*
X0123100Y0074573D02*
X0118896Y0074573D01*
D13*
X0089000Y0076380D02*
X0089000Y0076620D01*
X0089000Y0069120D02*
X0089000Y0068880D01*
X0034120Y0089000D02*
X0033880Y0089000D01*
X0021500Y0098880D02*
X0021500Y0099120D01*
X0021500Y0071620D02*
X0021500Y0071380D01*
D14*
X0015594Y0082169D02*
X0014413Y0082169D01*
X0014413Y0090831D01*
X0015594Y0090831D01*
X0027406Y0090831D02*
X0028587Y0090831D01*
X0028587Y0082169D01*
X0027406Y0082169D01*
X0024709Y0110850D02*
X0013291Y0110850D01*
X0013291Y0117150D01*
X0024709Y0117150D01*
X0024709Y0110850D01*
X0014000Y0112500D02*
X0014002Y0112563D01*
X0014008Y0112625D01*
X0014018Y0112687D01*
X0014031Y0112749D01*
X0014049Y0112809D01*
X0014070Y0112868D01*
X0014095Y0112926D01*
X0014124Y0112982D01*
X0014156Y0113036D01*
X0014191Y0113088D01*
X0014229Y0113137D01*
X0014271Y0113185D01*
X0014315Y0113229D01*
X0014363Y0113271D01*
X0014412Y0113309D01*
X0014464Y0113344D01*
X0014518Y0113376D01*
X0014574Y0113405D01*
X0014632Y0113430D01*
X0014691Y0113451D01*
X0014751Y0113469D01*
X0014813Y0113482D01*
X0014875Y0113492D01*
X0014937Y0113498D01*
X0015000Y0113500D01*
X0015063Y0113498D01*
X0015125Y0113492D01*
X0015187Y0113482D01*
X0015249Y0113469D01*
X0015309Y0113451D01*
X0015368Y0113430D01*
X0015426Y0113405D01*
X0015482Y0113376D01*
X0015536Y0113344D01*
X0015588Y0113309D01*
X0015637Y0113271D01*
X0015685Y0113229D01*
X0015729Y0113185D01*
X0015771Y0113137D01*
X0015809Y0113088D01*
X0015844Y0113036D01*
X0015876Y0112982D01*
X0015905Y0112926D01*
X0015930Y0112868D01*
X0015951Y0112809D01*
X0015969Y0112749D01*
X0015982Y0112687D01*
X0015992Y0112625D01*
X0015998Y0112563D01*
X0016000Y0112500D01*
X0015998Y0112437D01*
X0015992Y0112375D01*
X0015982Y0112313D01*
X0015969Y0112251D01*
X0015951Y0112191D01*
X0015930Y0112132D01*
X0015905Y0112074D01*
X0015876Y0112018D01*
X0015844Y0111964D01*
X0015809Y0111912D01*
X0015771Y0111863D01*
X0015729Y0111815D01*
X0015685Y0111771D01*
X0015637Y0111729D01*
X0015588Y0111691D01*
X0015536Y0111656D01*
X0015482Y0111624D01*
X0015426Y0111595D01*
X0015368Y0111570D01*
X0015309Y0111549D01*
X0015249Y0111531D01*
X0015187Y0111518D01*
X0015125Y0111508D01*
X0015063Y0111502D01*
X0015000Y0111500D01*
X0014937Y0111502D01*
X0014875Y0111508D01*
X0014813Y0111518D01*
X0014751Y0111531D01*
X0014691Y0111549D01*
X0014632Y0111570D01*
X0014574Y0111595D01*
X0014518Y0111624D01*
X0014464Y0111656D01*
X0014412Y0111691D01*
X0014363Y0111729D01*
X0014315Y0111771D01*
X0014271Y0111815D01*
X0014229Y0111863D01*
X0014191Y0111912D01*
X0014156Y0111964D01*
X0014124Y0112018D01*
X0014095Y0112074D01*
X0014070Y0112132D01*
X0014049Y0112191D01*
X0014031Y0112251D01*
X0014018Y0112313D01*
X0014008Y0112375D01*
X0014002Y0112437D01*
X0014000Y0112500D01*
X0011913Y0125063D02*
X0011913Y0132937D01*
X0026087Y0132937D01*
X0026087Y0125063D01*
X0011913Y0125063D01*
X0102563Y0095693D02*
X0102563Y0091756D01*
X0102563Y0095693D02*
X0110043Y0095693D01*
X0110043Y0095299D01*
X0110043Y0090181D02*
X0110043Y0087819D01*
X0110043Y0082701D02*
X0110043Y0082307D01*
X0102563Y0082307D01*
X0102563Y0086244D01*
D15*
X0089610Y0082898D02*
X0053390Y0082898D01*
X0053390Y0095102D01*
X0089610Y0095102D01*
X0089610Y0082898D01*
X0056145Y0080732D02*
X0056147Y0080771D01*
X0056153Y0080810D01*
X0056163Y0080848D01*
X0056176Y0080885D01*
X0056193Y0080920D01*
X0056213Y0080954D01*
X0056237Y0080985D01*
X0056264Y0081014D01*
X0056293Y0081040D01*
X0056325Y0081063D01*
X0056359Y0081083D01*
X0056395Y0081099D01*
X0056432Y0081111D01*
X0056471Y0081120D01*
X0056510Y0081125D01*
X0056549Y0081126D01*
X0056588Y0081123D01*
X0056627Y0081116D01*
X0056664Y0081105D01*
X0056701Y0081091D01*
X0056736Y0081073D01*
X0056769Y0081052D01*
X0056800Y0081027D01*
X0056828Y0081000D01*
X0056853Y0080970D01*
X0056875Y0080937D01*
X0056894Y0080903D01*
X0056909Y0080867D01*
X0056921Y0080829D01*
X0056929Y0080791D01*
X0056933Y0080752D01*
X0056933Y0080712D01*
X0056929Y0080673D01*
X0056921Y0080635D01*
X0056909Y0080597D01*
X0056894Y0080561D01*
X0056875Y0080527D01*
X0056853Y0080494D01*
X0056828Y0080464D01*
X0056800Y0080437D01*
X0056769Y0080412D01*
X0056736Y0080391D01*
X0056701Y0080373D01*
X0056664Y0080359D01*
X0056627Y0080348D01*
X0056588Y0080341D01*
X0056549Y0080338D01*
X0056510Y0080339D01*
X0056471Y0080344D01*
X0056432Y0080353D01*
X0056395Y0080365D01*
X0056359Y0080381D01*
X0056325Y0080401D01*
X0056293Y0080424D01*
X0056264Y0080450D01*
X0056237Y0080479D01*
X0056213Y0080510D01*
X0056193Y0080544D01*
X0056176Y0080579D01*
X0056163Y0080616D01*
X0056153Y0080654D01*
X0056147Y0080693D01*
X0056145Y0080732D01*
X0055659Y0080732D02*
X0055661Y0080791D01*
X0055667Y0080849D01*
X0055677Y0080907D01*
X0055690Y0080964D01*
X0055708Y0081021D01*
X0055729Y0081076D01*
X0055754Y0081129D01*
X0055782Y0081180D01*
X0055813Y0081230D01*
X0055848Y0081277D01*
X0055886Y0081322D01*
X0055927Y0081365D01*
X0055971Y0081404D01*
X0056017Y0081440D01*
X0056065Y0081474D01*
X0056116Y0081504D01*
X0056169Y0081530D01*
X0056223Y0081553D01*
X0056278Y0081572D01*
X0056335Y0081588D01*
X0056393Y0081600D01*
X0056451Y0081608D01*
X0056510Y0081612D01*
X0056568Y0081612D01*
X0056627Y0081608D01*
X0056685Y0081600D01*
X0056743Y0081588D01*
X0056800Y0081572D01*
X0056855Y0081553D01*
X0056909Y0081530D01*
X0056962Y0081504D01*
X0057013Y0081474D01*
X0057061Y0081440D01*
X0057107Y0081404D01*
X0057151Y0081365D01*
X0057192Y0081322D01*
X0057230Y0081277D01*
X0057265Y0081230D01*
X0057296Y0081180D01*
X0057324Y0081129D01*
X0057349Y0081076D01*
X0057370Y0081021D01*
X0057388Y0080964D01*
X0057401Y0080907D01*
X0057411Y0080849D01*
X0057417Y0080791D01*
X0057419Y0080732D01*
X0057417Y0080673D01*
X0057411Y0080615D01*
X0057401Y0080557D01*
X0057388Y0080500D01*
X0057370Y0080443D01*
X0057349Y0080388D01*
X0057324Y0080335D01*
X0057296Y0080284D01*
X0057265Y0080234D01*
X0057230Y0080187D01*
X0057192Y0080142D01*
X0057151Y0080099D01*
X0057107Y0080060D01*
X0057061Y0080024D01*
X0057013Y0079990D01*
X0056962Y0079960D01*
X0056909Y0079934D01*
X0056855Y0079911D01*
X0056800Y0079892D01*
X0056743Y0079876D01*
X0056685Y0079864D01*
X0056627Y0079856D01*
X0056568Y0079852D01*
X0056510Y0079852D01*
X0056451Y0079856D01*
X0056393Y0079864D01*
X0056335Y0079876D01*
X0056278Y0079892D01*
X0056223Y0079911D01*
X0056169Y0079934D01*
X0056116Y0079960D01*
X0056065Y0079990D01*
X0056017Y0080024D01*
X0055971Y0080060D01*
X0055927Y0080099D01*
X0055886Y0080142D01*
X0055848Y0080187D01*
X0055813Y0080234D01*
X0055782Y0080284D01*
X0055754Y0080335D01*
X0055729Y0080388D01*
X0055708Y0080443D01*
X0055690Y0080500D01*
X0055677Y0080557D01*
X0055667Y0080615D01*
X0055661Y0080673D01*
X0055659Y0080732D01*
X0015201Y0080988D02*
X0015201Y0079413D01*
X0014020Y0080201D01*
X0015201Y0080988D01*
D16*
X0034000Y0074000D03*
X0044000Y0074000D03*
M02*
