G75*
%MOIN*%
%OFA0B0*%
%FSLAX25Y25*%
%IPPOS*%
%LPD*%
%AMOC8*
5,1,8,0,0,1.08239X$1,22.5*
%
%ADD10C,0.00000*%
%ADD11C,0.00800*%
D10*
X0009000Y0051500D02*
X0009000Y0151500D01*
X0045250Y0151500D01*
X0045250Y0098000D01*
X0097750Y0098000D01*
X0097750Y0151500D01*
X0134000Y0151500D01*
X0134000Y0051500D01*
X0009000Y0051500D01*
X0033313Y0110850D02*
X0033315Y0110975D01*
X0033321Y0111100D01*
X0033331Y0111224D01*
X0033345Y0111348D01*
X0033362Y0111472D01*
X0033384Y0111595D01*
X0033410Y0111717D01*
X0033439Y0111839D01*
X0033472Y0111959D01*
X0033510Y0112078D01*
X0033550Y0112197D01*
X0033595Y0112313D01*
X0033643Y0112428D01*
X0033695Y0112542D01*
X0033751Y0112654D01*
X0033810Y0112764D01*
X0033872Y0112872D01*
X0033938Y0112979D01*
X0034007Y0113083D01*
X0034080Y0113184D01*
X0034155Y0113284D01*
X0034234Y0113381D01*
X0034316Y0113475D01*
X0034401Y0113567D01*
X0034488Y0113656D01*
X0034579Y0113742D01*
X0034672Y0113825D01*
X0034768Y0113906D01*
X0034866Y0113983D01*
X0034966Y0114057D01*
X0035069Y0114128D01*
X0035174Y0114195D01*
X0035282Y0114260D01*
X0035391Y0114320D01*
X0035502Y0114378D01*
X0035615Y0114431D01*
X0035729Y0114481D01*
X0035845Y0114528D01*
X0035962Y0114570D01*
X0036081Y0114609D01*
X0036201Y0114645D01*
X0036322Y0114676D01*
X0036444Y0114704D01*
X0036566Y0114727D01*
X0036690Y0114747D01*
X0036814Y0114763D01*
X0036938Y0114775D01*
X0037063Y0114783D01*
X0037188Y0114787D01*
X0037312Y0114787D01*
X0037437Y0114783D01*
X0037562Y0114775D01*
X0037686Y0114763D01*
X0037810Y0114747D01*
X0037934Y0114727D01*
X0038056Y0114704D01*
X0038178Y0114676D01*
X0038299Y0114645D01*
X0038419Y0114609D01*
X0038538Y0114570D01*
X0038655Y0114528D01*
X0038771Y0114481D01*
X0038885Y0114431D01*
X0038998Y0114378D01*
X0039109Y0114320D01*
X0039219Y0114260D01*
X0039326Y0114195D01*
X0039431Y0114128D01*
X0039534Y0114057D01*
X0039634Y0113983D01*
X0039732Y0113906D01*
X0039828Y0113825D01*
X0039921Y0113742D01*
X0040012Y0113656D01*
X0040099Y0113567D01*
X0040184Y0113475D01*
X0040266Y0113381D01*
X0040345Y0113284D01*
X0040420Y0113184D01*
X0040493Y0113083D01*
X0040562Y0112979D01*
X0040628Y0112872D01*
X0040690Y0112764D01*
X0040749Y0112654D01*
X0040805Y0112542D01*
X0040857Y0112428D01*
X0040905Y0112313D01*
X0040950Y0112197D01*
X0040990Y0112078D01*
X0041028Y0111959D01*
X0041061Y0111839D01*
X0041090Y0111717D01*
X0041116Y0111595D01*
X0041138Y0111472D01*
X0041155Y0111348D01*
X0041169Y0111224D01*
X0041179Y0111100D01*
X0041185Y0110975D01*
X0041187Y0110850D01*
X0041185Y0110725D01*
X0041179Y0110600D01*
X0041169Y0110476D01*
X0041155Y0110352D01*
X0041138Y0110228D01*
X0041116Y0110105D01*
X0041090Y0109983D01*
X0041061Y0109861D01*
X0041028Y0109741D01*
X0040990Y0109622D01*
X0040950Y0109503D01*
X0040905Y0109387D01*
X0040857Y0109272D01*
X0040805Y0109158D01*
X0040749Y0109046D01*
X0040690Y0108936D01*
X0040628Y0108828D01*
X0040562Y0108721D01*
X0040493Y0108617D01*
X0040420Y0108516D01*
X0040345Y0108416D01*
X0040266Y0108319D01*
X0040184Y0108225D01*
X0040099Y0108133D01*
X0040012Y0108044D01*
X0039921Y0107958D01*
X0039828Y0107875D01*
X0039732Y0107794D01*
X0039634Y0107717D01*
X0039534Y0107643D01*
X0039431Y0107572D01*
X0039326Y0107505D01*
X0039218Y0107440D01*
X0039109Y0107380D01*
X0038998Y0107322D01*
X0038885Y0107269D01*
X0038771Y0107219D01*
X0038655Y0107172D01*
X0038538Y0107130D01*
X0038419Y0107091D01*
X0038299Y0107055D01*
X0038178Y0107024D01*
X0038056Y0106996D01*
X0037934Y0106973D01*
X0037810Y0106953D01*
X0037686Y0106937D01*
X0037562Y0106925D01*
X0037437Y0106917D01*
X0037312Y0106913D01*
X0037188Y0106913D01*
X0037063Y0106917D01*
X0036938Y0106925D01*
X0036814Y0106937D01*
X0036690Y0106953D01*
X0036566Y0106973D01*
X0036444Y0106996D01*
X0036322Y0107024D01*
X0036201Y0107055D01*
X0036081Y0107091D01*
X0035962Y0107130D01*
X0035845Y0107172D01*
X0035729Y0107219D01*
X0035615Y0107269D01*
X0035502Y0107322D01*
X0035391Y0107380D01*
X0035281Y0107440D01*
X0035174Y0107505D01*
X0035069Y0107572D01*
X0034966Y0107643D01*
X0034866Y0107717D01*
X0034768Y0107794D01*
X0034672Y0107875D01*
X0034579Y0107958D01*
X0034488Y0108044D01*
X0034401Y0108133D01*
X0034316Y0108225D01*
X0034234Y0108319D01*
X0034155Y0108416D01*
X0034080Y0108516D01*
X0034007Y0108617D01*
X0033938Y0108721D01*
X0033872Y0108828D01*
X0033810Y0108936D01*
X0033751Y0109046D01*
X0033695Y0109158D01*
X0033643Y0109272D01*
X0033595Y0109387D01*
X0033550Y0109503D01*
X0033510Y0109622D01*
X0033472Y0109741D01*
X0033439Y0109861D01*
X0033410Y0109983D01*
X0033384Y0110105D01*
X0033362Y0110228D01*
X0033345Y0110352D01*
X0033331Y0110476D01*
X0033321Y0110600D01*
X0033315Y0110725D01*
X0033313Y0110850D01*
X0033313Y0138410D02*
X0033315Y0138535D01*
X0033321Y0138660D01*
X0033331Y0138784D01*
X0033345Y0138908D01*
X0033362Y0139032D01*
X0033384Y0139155D01*
X0033410Y0139277D01*
X0033439Y0139399D01*
X0033472Y0139519D01*
X0033510Y0139638D01*
X0033550Y0139757D01*
X0033595Y0139873D01*
X0033643Y0139988D01*
X0033695Y0140102D01*
X0033751Y0140214D01*
X0033810Y0140324D01*
X0033872Y0140432D01*
X0033938Y0140539D01*
X0034007Y0140643D01*
X0034080Y0140744D01*
X0034155Y0140844D01*
X0034234Y0140941D01*
X0034316Y0141035D01*
X0034401Y0141127D01*
X0034488Y0141216D01*
X0034579Y0141302D01*
X0034672Y0141385D01*
X0034768Y0141466D01*
X0034866Y0141543D01*
X0034966Y0141617D01*
X0035069Y0141688D01*
X0035174Y0141755D01*
X0035282Y0141820D01*
X0035391Y0141880D01*
X0035502Y0141938D01*
X0035615Y0141991D01*
X0035729Y0142041D01*
X0035845Y0142088D01*
X0035962Y0142130D01*
X0036081Y0142169D01*
X0036201Y0142205D01*
X0036322Y0142236D01*
X0036444Y0142264D01*
X0036566Y0142287D01*
X0036690Y0142307D01*
X0036814Y0142323D01*
X0036938Y0142335D01*
X0037063Y0142343D01*
X0037188Y0142347D01*
X0037312Y0142347D01*
X0037437Y0142343D01*
X0037562Y0142335D01*
X0037686Y0142323D01*
X0037810Y0142307D01*
X0037934Y0142287D01*
X0038056Y0142264D01*
X0038178Y0142236D01*
X0038299Y0142205D01*
X0038419Y0142169D01*
X0038538Y0142130D01*
X0038655Y0142088D01*
X0038771Y0142041D01*
X0038885Y0141991D01*
X0038998Y0141938D01*
X0039109Y0141880D01*
X0039219Y0141820D01*
X0039326Y0141755D01*
X0039431Y0141688D01*
X0039534Y0141617D01*
X0039634Y0141543D01*
X0039732Y0141466D01*
X0039828Y0141385D01*
X0039921Y0141302D01*
X0040012Y0141216D01*
X0040099Y0141127D01*
X0040184Y0141035D01*
X0040266Y0140941D01*
X0040345Y0140844D01*
X0040420Y0140744D01*
X0040493Y0140643D01*
X0040562Y0140539D01*
X0040628Y0140432D01*
X0040690Y0140324D01*
X0040749Y0140214D01*
X0040805Y0140102D01*
X0040857Y0139988D01*
X0040905Y0139873D01*
X0040950Y0139757D01*
X0040990Y0139638D01*
X0041028Y0139519D01*
X0041061Y0139399D01*
X0041090Y0139277D01*
X0041116Y0139155D01*
X0041138Y0139032D01*
X0041155Y0138908D01*
X0041169Y0138784D01*
X0041179Y0138660D01*
X0041185Y0138535D01*
X0041187Y0138410D01*
X0041185Y0138285D01*
X0041179Y0138160D01*
X0041169Y0138036D01*
X0041155Y0137912D01*
X0041138Y0137788D01*
X0041116Y0137665D01*
X0041090Y0137543D01*
X0041061Y0137421D01*
X0041028Y0137301D01*
X0040990Y0137182D01*
X0040950Y0137063D01*
X0040905Y0136947D01*
X0040857Y0136832D01*
X0040805Y0136718D01*
X0040749Y0136606D01*
X0040690Y0136496D01*
X0040628Y0136388D01*
X0040562Y0136281D01*
X0040493Y0136177D01*
X0040420Y0136076D01*
X0040345Y0135976D01*
X0040266Y0135879D01*
X0040184Y0135785D01*
X0040099Y0135693D01*
X0040012Y0135604D01*
X0039921Y0135518D01*
X0039828Y0135435D01*
X0039732Y0135354D01*
X0039634Y0135277D01*
X0039534Y0135203D01*
X0039431Y0135132D01*
X0039326Y0135065D01*
X0039218Y0135000D01*
X0039109Y0134940D01*
X0038998Y0134882D01*
X0038885Y0134829D01*
X0038771Y0134779D01*
X0038655Y0134732D01*
X0038538Y0134690D01*
X0038419Y0134651D01*
X0038299Y0134615D01*
X0038178Y0134584D01*
X0038056Y0134556D01*
X0037934Y0134533D01*
X0037810Y0134513D01*
X0037686Y0134497D01*
X0037562Y0134485D01*
X0037437Y0134477D01*
X0037312Y0134473D01*
X0037188Y0134473D01*
X0037063Y0134477D01*
X0036938Y0134485D01*
X0036814Y0134497D01*
X0036690Y0134513D01*
X0036566Y0134533D01*
X0036444Y0134556D01*
X0036322Y0134584D01*
X0036201Y0134615D01*
X0036081Y0134651D01*
X0035962Y0134690D01*
X0035845Y0134732D01*
X0035729Y0134779D01*
X0035615Y0134829D01*
X0035502Y0134882D01*
X0035391Y0134940D01*
X0035281Y0135000D01*
X0035174Y0135065D01*
X0035069Y0135132D01*
X0034966Y0135203D01*
X0034866Y0135277D01*
X0034768Y0135354D01*
X0034672Y0135435D01*
X0034579Y0135518D01*
X0034488Y0135604D01*
X0034401Y0135693D01*
X0034316Y0135785D01*
X0034234Y0135879D01*
X0034155Y0135976D01*
X0034080Y0136076D01*
X0034007Y0136177D01*
X0033938Y0136281D01*
X0033872Y0136388D01*
X0033810Y0136496D01*
X0033751Y0136606D01*
X0033695Y0136718D01*
X0033643Y0136832D01*
X0033595Y0136947D01*
X0033550Y0137063D01*
X0033510Y0137182D01*
X0033472Y0137301D01*
X0033439Y0137421D01*
X0033410Y0137543D01*
X0033384Y0137665D01*
X0033362Y0137788D01*
X0033345Y0137912D01*
X0033331Y0138036D01*
X0033321Y0138160D01*
X0033315Y0138285D01*
X0033313Y0138410D01*
X0101813Y0138410D02*
X0101815Y0138535D01*
X0101821Y0138660D01*
X0101831Y0138784D01*
X0101845Y0138908D01*
X0101862Y0139032D01*
X0101884Y0139155D01*
X0101910Y0139277D01*
X0101939Y0139399D01*
X0101972Y0139519D01*
X0102010Y0139638D01*
X0102050Y0139757D01*
X0102095Y0139873D01*
X0102143Y0139988D01*
X0102195Y0140102D01*
X0102251Y0140214D01*
X0102310Y0140324D01*
X0102372Y0140432D01*
X0102438Y0140539D01*
X0102507Y0140643D01*
X0102580Y0140744D01*
X0102655Y0140844D01*
X0102734Y0140941D01*
X0102816Y0141035D01*
X0102901Y0141127D01*
X0102988Y0141216D01*
X0103079Y0141302D01*
X0103172Y0141385D01*
X0103268Y0141466D01*
X0103366Y0141543D01*
X0103466Y0141617D01*
X0103569Y0141688D01*
X0103674Y0141755D01*
X0103782Y0141820D01*
X0103891Y0141880D01*
X0104002Y0141938D01*
X0104115Y0141991D01*
X0104229Y0142041D01*
X0104345Y0142088D01*
X0104462Y0142130D01*
X0104581Y0142169D01*
X0104701Y0142205D01*
X0104822Y0142236D01*
X0104944Y0142264D01*
X0105066Y0142287D01*
X0105190Y0142307D01*
X0105314Y0142323D01*
X0105438Y0142335D01*
X0105563Y0142343D01*
X0105688Y0142347D01*
X0105812Y0142347D01*
X0105937Y0142343D01*
X0106062Y0142335D01*
X0106186Y0142323D01*
X0106310Y0142307D01*
X0106434Y0142287D01*
X0106556Y0142264D01*
X0106678Y0142236D01*
X0106799Y0142205D01*
X0106919Y0142169D01*
X0107038Y0142130D01*
X0107155Y0142088D01*
X0107271Y0142041D01*
X0107385Y0141991D01*
X0107498Y0141938D01*
X0107609Y0141880D01*
X0107719Y0141820D01*
X0107826Y0141755D01*
X0107931Y0141688D01*
X0108034Y0141617D01*
X0108134Y0141543D01*
X0108232Y0141466D01*
X0108328Y0141385D01*
X0108421Y0141302D01*
X0108512Y0141216D01*
X0108599Y0141127D01*
X0108684Y0141035D01*
X0108766Y0140941D01*
X0108845Y0140844D01*
X0108920Y0140744D01*
X0108993Y0140643D01*
X0109062Y0140539D01*
X0109128Y0140432D01*
X0109190Y0140324D01*
X0109249Y0140214D01*
X0109305Y0140102D01*
X0109357Y0139988D01*
X0109405Y0139873D01*
X0109450Y0139757D01*
X0109490Y0139638D01*
X0109528Y0139519D01*
X0109561Y0139399D01*
X0109590Y0139277D01*
X0109616Y0139155D01*
X0109638Y0139032D01*
X0109655Y0138908D01*
X0109669Y0138784D01*
X0109679Y0138660D01*
X0109685Y0138535D01*
X0109687Y0138410D01*
X0109685Y0138285D01*
X0109679Y0138160D01*
X0109669Y0138036D01*
X0109655Y0137912D01*
X0109638Y0137788D01*
X0109616Y0137665D01*
X0109590Y0137543D01*
X0109561Y0137421D01*
X0109528Y0137301D01*
X0109490Y0137182D01*
X0109450Y0137063D01*
X0109405Y0136947D01*
X0109357Y0136832D01*
X0109305Y0136718D01*
X0109249Y0136606D01*
X0109190Y0136496D01*
X0109128Y0136388D01*
X0109062Y0136281D01*
X0108993Y0136177D01*
X0108920Y0136076D01*
X0108845Y0135976D01*
X0108766Y0135879D01*
X0108684Y0135785D01*
X0108599Y0135693D01*
X0108512Y0135604D01*
X0108421Y0135518D01*
X0108328Y0135435D01*
X0108232Y0135354D01*
X0108134Y0135277D01*
X0108034Y0135203D01*
X0107931Y0135132D01*
X0107826Y0135065D01*
X0107718Y0135000D01*
X0107609Y0134940D01*
X0107498Y0134882D01*
X0107385Y0134829D01*
X0107271Y0134779D01*
X0107155Y0134732D01*
X0107038Y0134690D01*
X0106919Y0134651D01*
X0106799Y0134615D01*
X0106678Y0134584D01*
X0106556Y0134556D01*
X0106434Y0134533D01*
X0106310Y0134513D01*
X0106186Y0134497D01*
X0106062Y0134485D01*
X0105937Y0134477D01*
X0105812Y0134473D01*
X0105688Y0134473D01*
X0105563Y0134477D01*
X0105438Y0134485D01*
X0105314Y0134497D01*
X0105190Y0134513D01*
X0105066Y0134533D01*
X0104944Y0134556D01*
X0104822Y0134584D01*
X0104701Y0134615D01*
X0104581Y0134651D01*
X0104462Y0134690D01*
X0104345Y0134732D01*
X0104229Y0134779D01*
X0104115Y0134829D01*
X0104002Y0134882D01*
X0103891Y0134940D01*
X0103781Y0135000D01*
X0103674Y0135065D01*
X0103569Y0135132D01*
X0103466Y0135203D01*
X0103366Y0135277D01*
X0103268Y0135354D01*
X0103172Y0135435D01*
X0103079Y0135518D01*
X0102988Y0135604D01*
X0102901Y0135693D01*
X0102816Y0135785D01*
X0102734Y0135879D01*
X0102655Y0135976D01*
X0102580Y0136076D01*
X0102507Y0136177D01*
X0102438Y0136281D01*
X0102372Y0136388D01*
X0102310Y0136496D01*
X0102251Y0136606D01*
X0102195Y0136718D01*
X0102143Y0136832D01*
X0102095Y0136947D01*
X0102050Y0137063D01*
X0102010Y0137182D01*
X0101972Y0137301D01*
X0101939Y0137421D01*
X0101910Y0137543D01*
X0101884Y0137665D01*
X0101862Y0137788D01*
X0101845Y0137912D01*
X0101831Y0138036D01*
X0101821Y0138160D01*
X0101815Y0138285D01*
X0101813Y0138410D01*
X0101813Y0110850D02*
X0101815Y0110975D01*
X0101821Y0111100D01*
X0101831Y0111224D01*
X0101845Y0111348D01*
X0101862Y0111472D01*
X0101884Y0111595D01*
X0101910Y0111717D01*
X0101939Y0111839D01*
X0101972Y0111959D01*
X0102010Y0112078D01*
X0102050Y0112197D01*
X0102095Y0112313D01*
X0102143Y0112428D01*
X0102195Y0112542D01*
X0102251Y0112654D01*
X0102310Y0112764D01*
X0102372Y0112872D01*
X0102438Y0112979D01*
X0102507Y0113083D01*
X0102580Y0113184D01*
X0102655Y0113284D01*
X0102734Y0113381D01*
X0102816Y0113475D01*
X0102901Y0113567D01*
X0102988Y0113656D01*
X0103079Y0113742D01*
X0103172Y0113825D01*
X0103268Y0113906D01*
X0103366Y0113983D01*
X0103466Y0114057D01*
X0103569Y0114128D01*
X0103674Y0114195D01*
X0103782Y0114260D01*
X0103891Y0114320D01*
X0104002Y0114378D01*
X0104115Y0114431D01*
X0104229Y0114481D01*
X0104345Y0114528D01*
X0104462Y0114570D01*
X0104581Y0114609D01*
X0104701Y0114645D01*
X0104822Y0114676D01*
X0104944Y0114704D01*
X0105066Y0114727D01*
X0105190Y0114747D01*
X0105314Y0114763D01*
X0105438Y0114775D01*
X0105563Y0114783D01*
X0105688Y0114787D01*
X0105812Y0114787D01*
X0105937Y0114783D01*
X0106062Y0114775D01*
X0106186Y0114763D01*
X0106310Y0114747D01*
X0106434Y0114727D01*
X0106556Y0114704D01*
X0106678Y0114676D01*
X0106799Y0114645D01*
X0106919Y0114609D01*
X0107038Y0114570D01*
X0107155Y0114528D01*
X0107271Y0114481D01*
X0107385Y0114431D01*
X0107498Y0114378D01*
X0107609Y0114320D01*
X0107719Y0114260D01*
X0107826Y0114195D01*
X0107931Y0114128D01*
X0108034Y0114057D01*
X0108134Y0113983D01*
X0108232Y0113906D01*
X0108328Y0113825D01*
X0108421Y0113742D01*
X0108512Y0113656D01*
X0108599Y0113567D01*
X0108684Y0113475D01*
X0108766Y0113381D01*
X0108845Y0113284D01*
X0108920Y0113184D01*
X0108993Y0113083D01*
X0109062Y0112979D01*
X0109128Y0112872D01*
X0109190Y0112764D01*
X0109249Y0112654D01*
X0109305Y0112542D01*
X0109357Y0112428D01*
X0109405Y0112313D01*
X0109450Y0112197D01*
X0109490Y0112078D01*
X0109528Y0111959D01*
X0109561Y0111839D01*
X0109590Y0111717D01*
X0109616Y0111595D01*
X0109638Y0111472D01*
X0109655Y0111348D01*
X0109669Y0111224D01*
X0109679Y0111100D01*
X0109685Y0110975D01*
X0109687Y0110850D01*
X0109685Y0110725D01*
X0109679Y0110600D01*
X0109669Y0110476D01*
X0109655Y0110352D01*
X0109638Y0110228D01*
X0109616Y0110105D01*
X0109590Y0109983D01*
X0109561Y0109861D01*
X0109528Y0109741D01*
X0109490Y0109622D01*
X0109450Y0109503D01*
X0109405Y0109387D01*
X0109357Y0109272D01*
X0109305Y0109158D01*
X0109249Y0109046D01*
X0109190Y0108936D01*
X0109128Y0108828D01*
X0109062Y0108721D01*
X0108993Y0108617D01*
X0108920Y0108516D01*
X0108845Y0108416D01*
X0108766Y0108319D01*
X0108684Y0108225D01*
X0108599Y0108133D01*
X0108512Y0108044D01*
X0108421Y0107958D01*
X0108328Y0107875D01*
X0108232Y0107794D01*
X0108134Y0107717D01*
X0108034Y0107643D01*
X0107931Y0107572D01*
X0107826Y0107505D01*
X0107718Y0107440D01*
X0107609Y0107380D01*
X0107498Y0107322D01*
X0107385Y0107269D01*
X0107271Y0107219D01*
X0107155Y0107172D01*
X0107038Y0107130D01*
X0106919Y0107091D01*
X0106799Y0107055D01*
X0106678Y0107024D01*
X0106556Y0106996D01*
X0106434Y0106973D01*
X0106310Y0106953D01*
X0106186Y0106937D01*
X0106062Y0106925D01*
X0105937Y0106917D01*
X0105812Y0106913D01*
X0105688Y0106913D01*
X0105563Y0106917D01*
X0105438Y0106925D01*
X0105314Y0106937D01*
X0105190Y0106953D01*
X0105066Y0106973D01*
X0104944Y0106996D01*
X0104822Y0107024D01*
X0104701Y0107055D01*
X0104581Y0107091D01*
X0104462Y0107130D01*
X0104345Y0107172D01*
X0104229Y0107219D01*
X0104115Y0107269D01*
X0104002Y0107322D01*
X0103891Y0107380D01*
X0103781Y0107440D01*
X0103674Y0107505D01*
X0103569Y0107572D01*
X0103466Y0107643D01*
X0103366Y0107717D01*
X0103268Y0107794D01*
X0103172Y0107875D01*
X0103079Y0107958D01*
X0102988Y0108044D01*
X0102901Y0108133D01*
X0102816Y0108225D01*
X0102734Y0108319D01*
X0102655Y0108416D01*
X0102580Y0108516D01*
X0102507Y0108617D01*
X0102438Y0108721D01*
X0102372Y0108828D01*
X0102310Y0108936D01*
X0102251Y0109046D01*
X0102195Y0109158D01*
X0102143Y0109272D01*
X0102095Y0109387D01*
X0102050Y0109503D01*
X0102010Y0109622D01*
X0101972Y0109741D01*
X0101939Y0109861D01*
X0101910Y0109983D01*
X0101884Y0110105D01*
X0101862Y0110228D01*
X0101845Y0110352D01*
X0101831Y0110476D01*
X0101821Y0110600D01*
X0101815Y0110725D01*
X0101813Y0110850D01*
D11*
X0114400Y0082014D02*
X0118604Y0082014D01*
X0118604Y0079212D02*
X0114400Y0082014D01*
X0114400Y0079212D02*
X0118604Y0079212D01*
X0118604Y0077410D02*
X0118604Y0074608D01*
X0118604Y0076009D02*
X0114400Y0076009D01*
X0115101Y0072806D02*
X0114400Y0072106D01*
X0114400Y0070705D01*
X0115101Y0070004D01*
X0116502Y0070705D02*
X0116502Y0072106D01*
X0115801Y0072806D01*
X0115101Y0072806D01*
X0116502Y0070705D02*
X0117202Y0070004D01*
X0117903Y0070004D01*
X0118604Y0070705D01*
X0118604Y0072106D01*
X0117903Y0072806D01*
X0117903Y0068202D02*
X0116502Y0068202D01*
X0115801Y0067502D01*
X0115801Y0065400D01*
X0114400Y0065400D02*
X0118604Y0065400D01*
X0118604Y0067502D01*
X0117903Y0068202D01*
X0115801Y0066801D02*
X0114400Y0068202D01*
X0108604Y0067502D02*
X0108604Y0066101D01*
X0107903Y0065400D01*
X0105101Y0065400D01*
X0104400Y0066101D01*
X0104400Y0067502D01*
X0105101Y0068202D01*
X0106502Y0068202D01*
X0106502Y0066801D01*
X0107903Y0068202D02*
X0108604Y0067502D01*
X0108604Y0070004D02*
X0108604Y0072106D01*
X0107903Y0072806D01*
X0106502Y0072806D01*
X0105801Y0072106D01*
X0105801Y0070004D01*
X0104400Y0070004D02*
X0108604Y0070004D01*
X0108604Y0074608D02*
X0108604Y0076009D01*
X0108604Y0075308D02*
X0104400Y0075308D01*
X0104400Y0074608D02*
X0104400Y0076009D01*
X0105101Y0077677D02*
X0104400Y0078378D01*
X0104400Y0079779D01*
X0105101Y0080480D01*
X0107903Y0080480D01*
X0108604Y0079779D01*
X0108604Y0078378D01*
X0107903Y0077677D01*
X0105101Y0077677D01*
X0098604Y0077410D02*
X0094400Y0077410D01*
X0098604Y0074608D01*
X0094400Y0074608D01*
X0095101Y0072806D02*
X0094400Y0072106D01*
X0094400Y0070705D01*
X0095101Y0070004D01*
X0096502Y0070705D02*
X0096502Y0072106D01*
X0095801Y0072806D01*
X0095101Y0072806D01*
X0096502Y0070705D02*
X0097202Y0070004D01*
X0097903Y0070004D01*
X0098604Y0070705D01*
X0098604Y0072106D01*
X0097903Y0072806D01*
X0097903Y0068202D02*
X0098604Y0067502D01*
X0098604Y0066101D01*
X0097903Y0065400D01*
X0095101Y0065400D01*
X0094400Y0066101D01*
X0094400Y0067502D01*
X0095101Y0068202D01*
X0088604Y0068202D02*
X0084400Y0068202D01*
X0085101Y0070004D02*
X0084400Y0070705D01*
X0084400Y0072106D01*
X0085101Y0072806D01*
X0087903Y0072806D01*
X0088604Y0072106D01*
X0088604Y0070705D01*
X0087903Y0070004D01*
X0085101Y0070004D01*
X0087202Y0066801D02*
X0088604Y0068202D01*
X0087202Y0066801D02*
X0088604Y0065400D01*
X0084400Y0065400D01*
X0078604Y0065400D02*
X0077202Y0066801D01*
X0078604Y0068202D01*
X0074400Y0068202D01*
X0074400Y0070004D02*
X0074400Y0071405D01*
X0074400Y0070705D02*
X0078604Y0070705D01*
X0078604Y0071405D02*
X0078604Y0070004D01*
X0077903Y0073073D02*
X0077202Y0073073D01*
X0076502Y0073774D01*
X0076502Y0075175D01*
X0075801Y0075876D01*
X0075101Y0075876D01*
X0074400Y0075175D01*
X0074400Y0073774D01*
X0075101Y0073073D01*
X0077903Y0073073D02*
X0078604Y0073774D01*
X0078604Y0075175D01*
X0077903Y0075876D01*
X0077903Y0077677D02*
X0075101Y0077677D01*
X0074400Y0078378D01*
X0074400Y0079779D01*
X0075101Y0080480D01*
X0077903Y0080480D01*
X0078604Y0079779D01*
X0078604Y0078378D01*
X0077903Y0077677D01*
X0084400Y0076710D02*
X0084400Y0075308D01*
X0085101Y0074608D01*
X0086502Y0075308D02*
X0086502Y0076710D01*
X0085801Y0077410D01*
X0085101Y0077410D01*
X0084400Y0076710D01*
X0084400Y0079212D02*
X0084400Y0080613D01*
X0084400Y0079912D02*
X0088604Y0079912D01*
X0088604Y0079212D02*
X0088604Y0080613D01*
X0087903Y0077410D02*
X0088604Y0076710D01*
X0088604Y0075308D01*
X0087903Y0074608D01*
X0087202Y0074608D01*
X0086502Y0075308D01*
X0078604Y0065400D02*
X0074400Y0065400D01*
X0068604Y0066101D02*
X0067903Y0065400D01*
X0065101Y0065400D01*
X0064400Y0066101D01*
X0064400Y0067502D01*
X0065101Y0068202D01*
X0064400Y0070004D02*
X0064400Y0072806D01*
X0064400Y0074608D02*
X0068604Y0074608D01*
X0066502Y0075308D02*
X0064400Y0077410D01*
X0065801Y0074608D02*
X0068604Y0077410D01*
X0068604Y0070004D02*
X0064400Y0070004D01*
X0067903Y0068202D02*
X0068604Y0067502D01*
X0068604Y0066101D01*
X0058604Y0066101D02*
X0057903Y0065400D01*
X0055101Y0065400D01*
X0054400Y0066101D01*
X0054400Y0067502D01*
X0055101Y0068202D01*
X0056502Y0068202D01*
X0056502Y0066801D01*
X0057903Y0068202D02*
X0058604Y0067502D01*
X0058604Y0066101D01*
X0058604Y0070004D02*
X0054400Y0072806D01*
X0058604Y0072806D01*
X0058604Y0074608D02*
X0058604Y0076710D01*
X0057903Y0077410D01*
X0055101Y0077410D01*
X0054400Y0076710D01*
X0054400Y0074608D01*
X0058604Y0074608D01*
X0058604Y0070004D02*
X0054400Y0070004D01*
X0048604Y0070004D02*
X0045801Y0070004D01*
X0044400Y0071405D01*
X0045801Y0072806D01*
X0048604Y0072806D01*
X0047903Y0074608D02*
X0048604Y0075308D01*
X0048604Y0076710D01*
X0047903Y0077410D01*
X0047202Y0077410D01*
X0046502Y0076710D01*
X0045801Y0077410D01*
X0045101Y0077410D01*
X0044400Y0076710D01*
X0044400Y0075308D01*
X0045101Y0074608D01*
X0046502Y0076009D02*
X0046502Y0076710D01*
X0038604Y0076009D02*
X0037202Y0077410D01*
X0034400Y0077410D01*
X0036502Y0077410D02*
X0036502Y0074608D01*
X0037202Y0074608D02*
X0038604Y0076009D01*
X0037202Y0074608D02*
X0034400Y0074608D01*
X0035101Y0072806D02*
X0034400Y0072106D01*
X0034400Y0070004D01*
X0038604Y0070004D01*
X0038604Y0072106D01*
X0037903Y0072806D01*
X0035101Y0072806D01*
X0035101Y0068202D02*
X0034400Y0067502D01*
X0034400Y0066101D01*
X0035101Y0065400D01*
X0036502Y0066101D02*
X0036502Y0067502D01*
X0035801Y0068202D01*
X0035101Y0068202D01*
X0036502Y0066101D02*
X0037202Y0065400D01*
X0037903Y0065400D01*
X0038604Y0066101D01*
X0038604Y0067502D01*
X0037903Y0068202D01*
X0044400Y0067502D02*
X0044400Y0066101D01*
X0045101Y0065400D01*
X0046502Y0066801D02*
X0046502Y0067502D01*
X0045801Y0068202D01*
X0045101Y0068202D01*
X0044400Y0067502D01*
X0046502Y0067502D02*
X0047202Y0068202D01*
X0047903Y0068202D01*
X0048604Y0067502D01*
X0048604Y0066101D01*
X0047903Y0065400D01*
X0028604Y0066101D02*
X0027903Y0065400D01*
X0027202Y0065400D01*
X0026502Y0066101D01*
X0026502Y0067502D01*
X0025801Y0068202D01*
X0025101Y0068202D01*
X0024400Y0067502D01*
X0024400Y0066101D01*
X0025101Y0065400D01*
X0028604Y0066101D02*
X0028604Y0067502D01*
X0027903Y0068202D01*
X0027903Y0070004D02*
X0025101Y0070004D01*
X0024400Y0070705D01*
X0024400Y0072106D01*
X0025101Y0072806D01*
X0024400Y0074608D02*
X0024400Y0077410D01*
X0024400Y0074608D02*
X0028604Y0074608D01*
X0027903Y0072806D02*
X0028604Y0072106D01*
X0028604Y0070705D01*
X0027903Y0070004D01*
M02*
