%
M48
M72
T01C0.01181
T02C0.04000
T03C0.07874
%
T01
X34000Y34000
X34000Y40500
X38500Y34000
X38500Y40500
X12500Y25000
X83000Y33500
X20000Y43500
X20500Y77500
X42500Y41000
X42500Y34000
X51500Y30500
X54500Y30500
X83000Y41500
X71000Y37500
X83250Y21250
X10000Y52500
X97750Y33750
X55250Y38250
X52500Y14500
X60750Y38250
X62500Y14500
X65500Y38250
X72500Y14500
X42500Y14500
X50500Y37250
X72500Y21000
X82500Y13500
X72000Y26000
X91500Y17500
T02
X107500Y7500
X97500Y7500
X87500Y7500
X77500Y7500
X67500Y7500
X57500Y7500
X47500Y7500
X37500Y7500
X27500Y7500
X17500Y7500
T03
X28250Y59350
X96750Y59350
X28250Y86910
X96750Y86910
M30
