%TF.GenerationSoftware,KiCad,Pcbnew,9.0.0*%
%TF.CreationDate,2025-04-09T13:07:37+02:00*%
%TF.ProjectId,breakoutboard,62726561-6b6f-4757-9462-6f6172642e6b,rev?*%
%TF.SameCoordinates,Original*%
%TF.FileFunction,Copper,L1,Top*%
%TF.FilePolarity,Positive*%
%FSLAX46Y46*%
G04 Gerber Fmt 4.6, Leading zero omitted, Abs format (unit mm)*
G04 Created by KiCad (PCBNEW 9.0.0) date 2025-04-09 13:07:37*
%MOMM*%
%LPD*%
G01*
G04 APERTURE LIST*
G04 Aperture macros list*
%AMRoundRect*
0 Rectangle with rounded corners*
0 $1 Rounding radius*
0 $2 $3 $4 $5 $6 $7 $8 $9 X,Y pos of 4 corners*
0 Add a 4 corners polygon primitive as box body*
4,1,4,$2,$3,$4,$5,$6,$7,$8,$9,$2,$3,0*
0 Add four circle primitives for the rounded corners*
1,1,$1+$1,$2,$3*
1,1,$1+$1,$4,$5*
1,1,$1+$1,$6,$7*
1,1,$1+$1,$8,$9*
0 Add four rect primitives between the rounded corners*
20,1,$1+$1,$2,$3,$4,$5,0*
20,1,$1+$1,$4,$5,$6,$7,0*
20,1,$1+$1,$6,$7,$8,$9,0*
20,1,$1+$1,$8,$9,$2,$3,0*%
G04 Aperture macros list end*
%TA.AperFunction,ComponentPad*%
%ADD10R,1.000000X1.000000*%
%TD*%
%TA.AperFunction,SMDPad,CuDef*%
%ADD11RoundRect,0.135000X-0.135000X-0.185000X0.135000X-0.185000X0.135000X0.185000X-0.135000X0.185000X0*%
%TD*%
%TA.AperFunction,SMDPad,CuDef*%
%ADD12R,1.050000X0.600000*%
%TD*%
%TA.AperFunction,SMDPad,CuDef*%
%ADD13R,1.200000X0.600000*%
%TD*%
%TA.AperFunction,SMDPad,CuDef*%
%ADD14RoundRect,0.160000X0.197500X0.160000X-0.197500X0.160000X-0.197500X-0.160000X0.197500X-0.160000X0*%
%TD*%
%TA.AperFunction,ComponentPad*%
%ADD15C,3.000000*%
%TD*%
%TA.AperFunction,SMDPad,CuDef*%
%ADD16RoundRect,0.140000X-0.140000X-0.170000X0.140000X-0.170000X0.140000X0.170000X-0.140000X0.170000X0*%
%TD*%
%TA.AperFunction,SMDPad,CuDef*%
%ADD17RoundRect,0.250000X0.425000X-0.450000X0.425000X0.450000X-0.425000X0.450000X-0.425000X-0.450000X0*%
%TD*%
%TA.AperFunction,SMDPad,CuDef*%
%ADD18RoundRect,0.225000X-0.225000X-0.250000X0.225000X-0.250000X0.225000X0.250000X-0.225000X0.250000X0*%
%TD*%
%TA.AperFunction,SMDPad,CuDef*%
%ADD19RoundRect,0.140000X0.170000X-0.140000X0.170000X0.140000X-0.170000X0.140000X-0.170000X-0.140000X0*%
%TD*%
%TA.AperFunction,SMDPad,CuDef*%
%ADD20R,0.220000X0.550000*%
%TD*%
%TA.AperFunction,SMDPad,CuDef*%
%ADD21R,0.600000X1.200000*%
%TD*%
%TA.AperFunction,SMDPad,CuDef*%
%ADD22R,1.100000X0.650000*%
%TD*%
%TA.AperFunction,ViaPad*%
%ADD23C,0.400000*%
%TD*%
%TA.AperFunction,Conductor*%
%ADD24C,0.300000*%
%TD*%
%TA.AperFunction,Conductor*%
%ADD25C,0.120000*%
%TD*%
%TA.AperFunction,Conductor*%
%ADD26C,0.250000*%
%TD*%
G04 APERTURE END LIST*
D10*
%TO.P,,1*%
%TO.N,+3.3V*%
X157300000Y-102000000D03*
%TD*%
%TO.P,,1*%
%TO.N,+5V*%
X143900000Y-101600000D03*
%TD*%
D11*
%TO.P,REF\u002A\u002A,1*%
%TO.N,TXO*%
X158990000Y-97900000D03*
%TO.P,REF\u002A\u002A,2*%
%TO.N,txout*%
X160010000Y-97900000D03*
%TD*%
%TO.P,REF\u002A\u002A,1*%
%TO.N,RX0*%
X158990000Y-96800000D03*
%TO.P,REF\u002A\u002A,2*%
%TO.N,rxout*%
X160010000Y-96800000D03*
%TD*%
D10*
%TO.P,,1*%
%TO.N,rxout*%
X161400000Y-96800000D03*
%TD*%
%TO.P,,1*%
%TO.N,txout*%
X161400000Y-98200000D03*
%TD*%
D12*
%TO.P,D1,1,K1*%
%TO.N,+3.3V*%
X157300000Y-104150000D03*
%TO.P,D1,2,K2*%
%TO.N,GND*%
X157300000Y-106050000D03*
%TO.P,D1,3,CA*%
%TO.N,unconnected-(D1-CA-Pad3)*%
X159500000Y-105100000D03*
%TD*%
D13*
%TO.P,IC2,1,VIN*%
%TO.N,Net-(IC1-VOUT)*%
X135900000Y-94000000D03*
%TO.P,IC2,2,GND*%
%TO.N,GND*%
X135900000Y-94950000D03*
%TO.P,IC2,3,ON/~{OFF}*%
%TO.N,Net-(IC1-VOUT)*%
X135900000Y-95900000D03*
%TO.P,IC2,4,NC*%
%TO.N,unconnected-(IC2-NC-Pad4)*%
X138400000Y-95900000D03*
%TO.P,IC2,5,VOUT*%
%TO.N,+5V*%
X138400000Y-94000000D03*
%TD*%
D10*
%TO.P,REF\u002A\u002A,1*%
%TO.N,GPIO3*%
X141600000Y-104100000D03*
%TD*%
D14*
%TO.P,R2,1*%
%TO.N,+3.3V*%
X151897500Y-105600000D03*
%TO.P,R2,2*%
%TO.N,I2C_SDA*%
X150702500Y-105600000D03*
%TD*%
D15*
%TO.P,,1*%
%TO.N,GND*%
X158700000Y-94450000D03*
%TD*%
%TO.P,,1*%
%TO.N,GND*%
X141300000Y-94450000D03*
%TD*%
D16*
%TO.P,C3,1*%
%TO.N,+3.3V*%
X135520000Y-104700000D03*
%TO.P,C3,2*%
%TO.N,GND*%
X136480000Y-104700000D03*
%TD*%
D10*
%TO.P,REF\u002A\u002A,1*%
%TO.N,GPIO2*%
X143300000Y-104200000D03*
%TD*%
D17*
%TO.P,C2,1*%
%TO.N,+5V*%
X141500000Y-102350000D03*
%TO.P,C2,2*%
%TO.N,GND*%
X141500000Y-99650000D03*
%TD*%
D18*
%TO.P,C5,1*%
%TO.N,Net-(IC1-VOUT)*%
X136625000Y-98600000D03*
%TO.P,C5,2*%
%TO.N,GND*%
X138175000Y-98600000D03*
%TD*%
D19*
%TO.P,C4,1*%
%TO.N,Net-(IC1-C-)*%
X134300000Y-101680000D03*
%TO.P,C4,2*%
%TO.N,Net-(IC1-C+)*%
X134300000Y-100720000D03*
%TD*%
D15*
%TO.P,,1*%
%TO.N,GND*%
X158700000Y-87450000D03*
%TD*%
D14*
%TO.P,R1,1*%
%TO.N,+3.3V*%
X151897500Y-104400000D03*
%TO.P,R1,2*%
%TO.N,I2C_SCL*%
X150702500Y-104400000D03*
%TD*%
D20*
%TO.P,J1,1,1*%
%TO.N,+5V*%
X146200000Y-100925000D03*
%TO.P,J1,2,2*%
%TO.N,DAT10*%
X146200000Y-99075000D03*
%TO.P,J1,3,3*%
%TO.N,+5V*%
X146600000Y-100925000D03*
%TO.P,J1,4,4*%
%TO.N,DAT9*%
X146600000Y-99075000D03*
%TO.P,J1,5,5*%
%TO.N,GND*%
X147000000Y-100925000D03*
%TO.P,J1,6,6*%
%TO.N,SPI_CS{slash}DAT14*%
X147000000Y-99075000D03*
%TO.P,J1,7,7*%
%TO.N,GND*%
X147400000Y-100925000D03*
%TO.P,J1,8,8*%
%TO.N,SPI_MOSI{slash}DAT13*%
X147400000Y-99075000D03*
%TO.P,J1,9,9*%
%TO.N,GND*%
X147800000Y-100925000D03*
%TO.P,J1,10,10*%
%TO.N,SPI_CLK{slash}DAT15*%
X147800000Y-99075000D03*
%TO.P,J1,11,11*%
%TO.N,GND*%
X148200000Y-100925000D03*
%TO.P,J1,12,12*%
%TO.N,DAT11*%
X148200000Y-99075000D03*
%TO.P,J1,13,13*%
%TO.N,RX0*%
X148600000Y-100925000D03*
%TO.P,J1,14,14*%
%TO.N,SPI_MISO{slash}DAT12*%
X148600000Y-99075000D03*
%TO.P,J1,15,15*%
%TO.N,TXO*%
X149000000Y-100925000D03*
%TO.P,J1,16,16*%
%TO.N,PIXCLK*%
X149000000Y-99075000D03*
%TO.P,J1,17,17*%
%TO.N,GPIO3*%
X149400000Y-100925000D03*
%TO.P,J1,18,18*%
%TO.N,DAT8*%
X149400000Y-99075000D03*
%TO.P,J1,19,19*%
%TO.N,GPIO2*%
X149800000Y-100925000D03*
%TO.P,J1,20,20*%
%TO.N,VSYNC*%
X149800000Y-99075000D03*
%TO.P,J1,21,21*%
%TO.N,GPIO1*%
X150200000Y-100925000D03*
%TO.P,J1,22,22*%
%TO.N,HSYNC*%
X150200000Y-99075000D03*
%TO.P,J1,23,23*%
%TO.N,unconnected-(J1-Pad23)*%
X150600000Y-100925000D03*
%TO.P,J1,24,24*%
%TO.N,I2C_SDA*%
X150600000Y-99075000D03*
%TO.P,J1,25,25*%
%TO.N,unconnected-(J1-Pad25)*%
X151000000Y-100925000D03*
%TO.P,J1,26,26*%
%TO.N,I2C_SCL*%
X151000000Y-99075000D03*
%TO.P,J1,27,27*%
%TO.N,unconnected-(J1-Pad27)*%
X151400000Y-100925000D03*
%TO.P,J1,28,28*%
%TO.N,GND*%
X151400000Y-99075000D03*
%TO.P,J1,29,29*%
%TO.N,unconnected-(J1-Pad29)*%
X151800000Y-100925000D03*
%TO.P,J1,30,30*%
%TO.N,NRST*%
X151800000Y-99075000D03*
%TO.P,J1,31,31*%
%TO.N,unconnected-(J1-Pad31)*%
X152200000Y-100925000D03*
%TO.P,J1,32,32*%
%TO.N,GND*%
X152200000Y-99075000D03*
%TO.P,J1,33,33*%
%TO.N,unconnected-(J1-Pad33)*%
X152600000Y-100925000D03*
%TO.P,J1,34,34*%
%TO.N,unconnected-(J1-Pad34)*%
X152600000Y-99075000D03*
%TO.P,J1,35,35*%
%TO.N,+3.3V*%
X153000000Y-100925000D03*
%TO.P,J1,36,36*%
%TO.N,GND*%
X153000000Y-99075000D03*
%TO.P,J1,37,37*%
%TO.N,+3.3V*%
X153400000Y-100925000D03*
%TO.P,J1,38,38*%
X153400000Y-99075000D03*
%TO.P,J1,39,39*%
X153800000Y-100925000D03*
%TO.P,J1,40,40*%
%TO.N,GND*%
X153800000Y-99075000D03*
%TO.P,J1,41,MP1*%
X145800000Y-100925000D03*
%TO.P,J1,42,MP2*%
X145800000Y-99075000D03*
%TO.P,J1,43,MP3*%
X154200000Y-100925000D03*
%TO.P,J1,44,MP4*%
X154200000Y-99075000D03*
%TD*%
D21*
%TO.P,IC1,1,VIN*%
%TO.N,+3.3V*%
X135800000Y-102900000D03*
%TO.P,IC1,2,GND*%
%TO.N,GND*%
X136750000Y-102900000D03*
%TO.P,IC1,3,C-*%
%TO.N,Net-(IC1-C-)*%
X137700000Y-102900000D03*
%TO.P,IC1,4,SHDN*%
%TO.N,GND*%
X137700000Y-100400000D03*
%TO.P,IC1,5,VOUT*%
%TO.N,Net-(IC1-VOUT)*%
X136750000Y-100400000D03*
%TO.P,IC1,6,C+*%
%TO.N,Net-(IC1-C+)*%
X135800000Y-100400000D03*
%TD*%
D10*
%TO.P,REF\u002A\u002A,1*%
%TO.N,GPIO1*%
X143300000Y-105800000D03*
%TD*%
D18*
%TO.P,C1,1*%
%TO.N,+3.3V*%
X153325000Y-104000000D03*
%TO.P,C1,2*%
%TO.N,GND*%
X154875000Y-104000000D03*
%TD*%
D22*
%TO.P,IC3,1,GND*%
%TO.N,GND*%
X161000000Y-101750000D03*
%TO.P,IC3,2,~{RESET}*%
%TO.N,NRST*%
X161000000Y-99850000D03*
%TO.P,IC3,3,VCC*%
%TO.N,+3.3V*%
X158800000Y-100800000D03*
%TD*%
D18*
%TO.P,C6,1*%
%TO.N,+3.3V*%
X153325000Y-105500000D03*
%TO.P,C6,2*%
%TO.N,GND*%
X154875000Y-105500000D03*
%TD*%
D15*
%TO.P,,1*%
%TO.N,GND*%
X141300000Y-87450000D03*
%TD*%
D23*
%TO.N,GND*%
X145500000Y-108200000D03*
X144700000Y-108200000D03*
X154300000Y-108200000D03*
X155100000Y-108200000D03*
X155100000Y-106800000D03*
X154300000Y-106800000D03*
X145100000Y-107475000D03*
X154700000Y-107475000D03*
X144900000Y-101700000D03*
X162200000Y-92500000D03*
X161900000Y-89000000D03*
X137700000Y-90100000D03*
X137600000Y-87200000D03*
X160100000Y-95900000D03*
X162400000Y-97400000D03*
X159500000Y-98600000D03*
X158100000Y-99100000D03*
X157500000Y-97500000D03*
%TO.N,TXO*%
X158990000Y-97900000D03*
%TO.N,RX0*%
X158990000Y-96800000D03*
X148700000Y-102200000D03*
%TO.N,TXO*%
X149000000Y-101600000D03*
%TO.N,GND*%
X159900000Y-100400000D03*
X156000000Y-103700000D03*
X153500000Y-106600000D03*
X165900000Y-85000000D03*
X154900000Y-100900000D03*
X165700000Y-108400000D03*
X140200000Y-102200000D03*
X134400000Y-97200000D03*
X146500000Y-107500000D03*
X144300000Y-104800000D03*
X134100000Y-85000000D03*
X138600000Y-106000000D03*
X137200000Y-94900000D03*
X151700000Y-101700000D03*
X140700000Y-107400000D03*
X157500000Y-85000000D03*
X165900000Y-94800000D03*
X134300000Y-102800000D03*
X146100000Y-104900000D03*
X146000000Y-100000000D03*
X139300000Y-99600000D03*
X154200000Y-99900000D03*
X147900000Y-104900000D03*
X161900000Y-85000000D03*
X134400000Y-99400000D03*
X139100000Y-101900000D03*
X142600000Y-85000000D03*
X156900000Y-100000000D03*
X142800000Y-103200000D03*
X141500000Y-98100000D03*
X144600000Y-103400000D03*
X146700000Y-98200000D03*
X138700000Y-100400000D03*
X134100000Y-108500000D03*
X140000000Y-103900000D03*
X165900000Y-98800000D03*
X143600000Y-107300000D03*
X142800000Y-101600000D03*
X145100000Y-100900000D03*
X151100000Y-107300000D03*
X155700000Y-104700000D03*
X143100000Y-99700000D03*
X152400000Y-103600000D03*
X140800000Y-105700000D03*
X162300000Y-101800000D03*
X160600000Y-108400000D03*
X144700000Y-98200000D03*
X137400000Y-104700000D03*
X161100000Y-101000000D03*
X165900000Y-89700000D03*
X156300000Y-108400000D03*
X149500000Y-105800000D03*
X165800000Y-103500000D03*
X142200000Y-105200000D03*
X134500000Y-93200000D03*
X154800000Y-99300000D03*
X160800000Y-102800000D03*
X148800000Y-98200000D03*
X155300000Y-99900000D03*
X146500000Y-102400000D03*
X152200000Y-99800000D03*
X138000000Y-97300000D03*
X145100000Y-99000000D03*
X151600000Y-99800000D03*
%TO.N,+3.3V*%
X153400000Y-103800000D03*
X153400000Y-103100000D03*
%TO.N,I2C_SDA*%
X150400000Y-103600000D03*
X150200000Y-99700000D03*
%TO.N,SPI_CLK{slash}DAT15*%
X148200000Y-99700000D03*
%TO.N,SPI_CS{slash}DAT14*%
X146700000Y-99650002D03*
%TO.N,I2C_SCL*%
X151400000Y-103600000D03*
X150900000Y-99700000D03*
%TO.N,SPI_MISO{slash}DAT12*%
X149700000Y-99700000D03*
%TO.N,SPI_MOSI{slash}DAT13*%
X147400000Y-99700000D03*
%TD*%
D24*
%TO.N,GND*%
X154200000Y-98711000D02*
X154200000Y-99075000D01*
X154711000Y-98711000D02*
X154200000Y-98711000D01*
X154800000Y-98800000D02*
X154711000Y-98711000D01*
X154800000Y-99300000D02*
X154800000Y-98800000D01*
X152200000Y-99800000D02*
X152200000Y-99075000D01*
X152200000Y-99800000D02*
X151600000Y-99800000D01*
X152200000Y-99800000D02*
X152800000Y-99800000D01*
X153000000Y-99600000D02*
X153000000Y-99075000D01*
X152800000Y-99800000D02*
X153000000Y-99600000D01*
%TO.N,+5V*%
X143900000Y-102350000D02*
X141500000Y-102350000D01*
X143900000Y-102350000D02*
X143900000Y-101600000D01*
D25*
%TO.N,NRST*%
X156400000Y-98400000D02*
X157850000Y-99850000D01*
X152080000Y-98400000D02*
X156400000Y-98400000D01*
X157850000Y-99850000D02*
X161000000Y-99850000D01*
X151800000Y-98680000D02*
X152080000Y-98400000D01*
X151800000Y-99075000D02*
X151800000Y-98680000D01*
%TO.N,txout*%
X161100000Y-97900000D02*
X161400000Y-98200000D01*
X160010000Y-97900000D02*
X161100000Y-97900000D01*
%TO.N,rxout*%
X160010000Y-96800000D02*
X161400000Y-96800000D01*
%TO.N,RX0*%
X148600000Y-102100000D02*
X148700000Y-102200000D01*
X148600000Y-100925000D02*
X148600000Y-102100000D01*
%TO.N,TXO*%
X149000000Y-101600000D02*
X149000000Y-100925000D01*
%TO.N,GPIO3*%
X141600000Y-103900000D02*
X141600000Y-104100000D01*
X142300000Y-103200000D02*
X141600000Y-103900000D01*
X148661000Y-102839000D02*
X142650468Y-102839000D01*
X142300000Y-103189468D02*
X142300000Y-103200000D01*
X149400000Y-102100000D02*
X148661000Y-102839000D01*
X149400000Y-100925000D02*
X149400000Y-102100000D01*
X142650468Y-102839000D02*
X142300000Y-103189468D01*
%TO.N,GPIO2*%
X148900000Y-103100000D02*
X149800000Y-102200000D01*
X149800000Y-102200000D02*
X149800000Y-100925000D01*
X146200000Y-103100000D02*
X148900000Y-103100000D01*
X145100000Y-104200000D02*
X146200000Y-103100000D01*
X143300000Y-104200000D02*
X145100000Y-104200000D01*
%TO.N,GPIO1*%
X150200000Y-102400000D02*
X150200000Y-100925000D01*
X149279000Y-103321000D02*
X150200000Y-102400000D01*
X146679000Y-103321000D02*
X149279000Y-103321000D01*
X144200000Y-105800000D02*
X146679000Y-103321000D01*
X143300000Y-105800000D02*
X144200000Y-105800000D01*
D24*
%TO.N,GND*%
X148200000Y-100200000D02*
X151200000Y-100200000D01*
X151200000Y-100200000D02*
X151600000Y-99800000D01*
D25*
%TO.N,I2C_SCL*%
X151000000Y-99600000D02*
X151000000Y-99075000D01*
X150900000Y-99700000D02*
X151000000Y-99600000D01*
%TO.N,I2C_SDA*%
X150600000Y-99300000D02*
X150600000Y-99075000D01*
X150200000Y-99700000D02*
X150600000Y-99300000D01*
%TO.N,SPI_MISO{slash}DAT12*%
X149000000Y-99700000D02*
X148600000Y-99300000D01*
X149700000Y-99700000D02*
X149000000Y-99700000D01*
X148600000Y-99300000D02*
X148600000Y-99075000D01*
D24*
%TO.N,GND*%
X147800000Y-100925000D02*
X147800000Y-100200000D01*
X147800000Y-100200000D02*
X147400000Y-100200000D01*
X147400000Y-100200000D02*
X147000000Y-100200000D01*
X147400000Y-100925000D02*
X147400000Y-100200000D01*
X147000000Y-100925000D02*
X147000000Y-100200000D01*
X147000000Y-100200000D02*
X146200000Y-100200000D01*
X146200000Y-100200000D02*
X146000000Y-100000000D01*
X148200000Y-100200000D02*
X147800000Y-100200000D01*
X148200000Y-100925000D02*
X148200000Y-100200000D01*
D25*
%TO.N,SPI_MOSI{slash}DAT13*%
X147400000Y-99700000D02*
X147400000Y-99075000D01*
%TO.N,SPI_CS{slash}DAT14*%
X147000000Y-99350002D02*
X147000000Y-99075000D01*
X146700000Y-99650002D02*
X147000000Y-99350002D01*
%TO.N,SPI_CLK{slash}DAT15*%
X147800000Y-99300000D02*
X147800000Y-99075000D01*
X148200000Y-99700000D02*
X147800000Y-99300000D01*
D24*
%TO.N,GND*%
X147000000Y-100925000D02*
X147000000Y-101900000D01*
X145800000Y-100925000D02*
X145800000Y-101600000D01*
X145800000Y-100200000D02*
X146000000Y-100000000D01*
X154200000Y-101299000D02*
X154899000Y-101299000D01*
X148200000Y-101700000D02*
X148200000Y-101900000D01*
X148200000Y-100925000D02*
X148200000Y-101700000D01*
X145100000Y-100900000D02*
X145800000Y-101600000D01*
X153800000Y-99075000D02*
X153800000Y-99500000D01*
X145800000Y-99800000D02*
X146000000Y-100000000D01*
X145100000Y-99000000D02*
X145800000Y-98300000D01*
X154899000Y-101299000D02*
X154900000Y-101300000D01*
X145800000Y-100925000D02*
X145800000Y-100200000D01*
X151400000Y-99075000D02*
X151400000Y-99600000D01*
X147800000Y-100925000D02*
X147800000Y-101900000D01*
X154200000Y-99900000D02*
X154200000Y-99075000D01*
X147400000Y-100925000D02*
X147400000Y-101900000D01*
X154200000Y-100925000D02*
X154200000Y-101299000D01*
X151400000Y-99600000D02*
X151600000Y-99800000D01*
X147000000Y-101900000D02*
X148200000Y-101900000D01*
X153800000Y-99500000D02*
X154200000Y-99900000D01*
X154900000Y-101300000D02*
X154900000Y-100900000D01*
X145800000Y-99075000D02*
X145800000Y-99800000D01*
X145800000Y-99075000D02*
X145800000Y-98300000D01*
%TO.N,+5V*%
X146600000Y-100925000D02*
X146600000Y-101500000D01*
X138400000Y-94000000D02*
X138400000Y-94300000D01*
X138400000Y-94300000D02*
X139900000Y-95800000D01*
X146200000Y-101900000D02*
X145750000Y-102350000D01*
X139900000Y-95800000D02*
X139900000Y-100750000D01*
X146200000Y-100925000D02*
X146200000Y-101900000D01*
X145750000Y-102350000D02*
X143900000Y-102350000D01*
X139900000Y-100750000D02*
X141500000Y-102350000D01*
X146600000Y-101500000D02*
X145750000Y-102350000D01*
%TO.N,+3.3V*%
X135800000Y-102900000D02*
X135800000Y-103900000D01*
X137951000Y-104051000D02*
X140700000Y-106800000D01*
X153400000Y-100925000D02*
X153400000Y-102100000D01*
X153000000Y-101700000D02*
X153000000Y-100925000D01*
X135800000Y-103900000D02*
X135800000Y-104420000D01*
X153800000Y-101700000D02*
X153400000Y-102100000D01*
X140700000Y-106800000D02*
X151200000Y-106800000D01*
X151897500Y-106102500D02*
X151897500Y-105600000D01*
D26*
X153400000Y-100925000D02*
X153400000Y-99075000D01*
D24*
X151200000Y-106800000D02*
X151897500Y-106102500D01*
X135951000Y-104051000D02*
X137951000Y-104051000D01*
X153400000Y-102100000D02*
X153000000Y-101700000D01*
X135800000Y-104420000D02*
X135520000Y-104700000D01*
X155200000Y-101700000D02*
X153800000Y-101700000D01*
X135800000Y-103900000D02*
X135951000Y-104051000D01*
X153800000Y-100925000D02*
X153800000Y-101700000D01*
%TO.N,Net-(IC1-C+)*%
X135480000Y-100720000D02*
X135800000Y-100400000D01*
X134300000Y-100720000D02*
X135480000Y-100720000D01*
%TO.N,Net-(IC1-C-)*%
X137700000Y-102000000D02*
X137700000Y-102900000D01*
X137380000Y-101680000D02*
X137700000Y-102000000D01*
X134300000Y-101680000D02*
X137380000Y-101680000D01*
D25*
%TO.N,I2C_SDA*%
X150000000Y-104897500D02*
X150000000Y-104000000D01*
X150000000Y-104000000D02*
X150400000Y-103600000D01*
X150702500Y-105600000D02*
X150000000Y-104897500D01*
%TO.N,I2C_SCL*%
X151400000Y-103702500D02*
X150702500Y-104400000D01*
X151400000Y-103600000D02*
X151400000Y-103702500D01*
%TD*%
%TA.AperFunction,Conductor*%
%TO.N,Net-(IC1-VOUT)*%
G36*
X134447273Y-93600500D02*
G01*
X134552727Y-93600500D01*
X134554593Y-93600000D01*
X136426000Y-93600000D01*
X136478326Y-93621674D01*
X136500000Y-93674000D01*
X136500000Y-94326000D01*
X136478326Y-94378326D01*
X136426000Y-94400000D01*
X135200000Y-94400000D01*
X135200000Y-94436125D01*
X135178326Y-94488451D01*
X135167113Y-94497653D01*
X135155449Y-94505446D01*
X135111133Y-94571767D01*
X135099500Y-94630253D01*
X135099500Y-95269746D01*
X135111133Y-95328232D01*
X135140608Y-95372343D01*
X135155448Y-95394552D01*
X135167113Y-95402346D01*
X135198578Y-95449438D01*
X135200000Y-95463874D01*
X135200000Y-95500000D01*
X136442738Y-95500000D01*
X136495064Y-95521674D01*
X136514370Y-95555429D01*
X137197632Y-98190866D01*
X137200000Y-98209437D01*
X137200000Y-99771536D01*
X137199644Y-99778783D01*
X137199500Y-99780246D01*
X137199500Y-101023384D01*
X137197992Y-101023384D01*
X137182967Y-101072938D01*
X137133021Y-101099643D01*
X137125758Y-101100000D01*
X136374242Y-101100000D01*
X136321916Y-101078326D01*
X136300242Y-101026000D01*
X136300500Y-101020751D01*
X136300500Y-99780253D01*
X136300208Y-99778783D01*
X136288867Y-99721769D01*
X136244552Y-99655448D01*
X136222568Y-99640759D01*
X136172171Y-99607083D01*
X136172659Y-99606351D01*
X136147258Y-99586162D01*
X135313784Y-98419297D01*
X135300000Y-98376285D01*
X135300000Y-96900000D01*
X134321674Y-95921674D01*
X134300000Y-95869348D01*
X134300000Y-93674000D01*
X134321674Y-93621674D01*
X134374000Y-93600000D01*
X134445407Y-93600000D01*
X134447273Y-93600500D01*
G37*
%TD.AperFunction*%
%TD*%
%TA.AperFunction,Conductor*%
%TO.N,+3.3V*%
G36*
X153878326Y-101521674D02*
G01*
X153900000Y-101574000D01*
X153900000Y-102100000D01*
X153900000Y-103400000D01*
X153900000Y-106126000D01*
X153878326Y-106178326D01*
X153826000Y-106200000D01*
X153554593Y-106200000D01*
X153552727Y-106199500D01*
X153447273Y-106199500D01*
X153445407Y-106200000D01*
X151574000Y-106200000D01*
X151521674Y-106178326D01*
X151500000Y-106126000D01*
X151500000Y-104163485D01*
X151521674Y-104111159D01*
X151562746Y-104090346D01*
X152258762Y-103983267D01*
X152289155Y-103984927D01*
X152335975Y-103997472D01*
X152347272Y-104000500D01*
X152347273Y-104000500D01*
X152452726Y-104000500D01*
X152452727Y-104000500D01*
X152554587Y-103973207D01*
X152626275Y-103931817D01*
X152652010Y-103922767D01*
X152800000Y-103900000D01*
X152800000Y-103654593D01*
X152800500Y-103652727D01*
X152800500Y-103547273D01*
X152800000Y-103545406D01*
X152800000Y-101574000D01*
X152821674Y-101521674D01*
X152874000Y-101500000D01*
X153826000Y-101500000D01*
X153878326Y-101521674D01*
G37*
%TD.AperFunction*%
%TD*%
%TA.AperFunction,Conductor*%
%TO.N,GND*%
G36*
X142927826Y-84572174D02*
G01*
X142949500Y-84624500D01*
X142949500Y-97729936D01*
X142972413Y-97785251D01*
X143014749Y-97827587D01*
X143070064Y-97850500D01*
X156929935Y-97850500D01*
X156929936Y-97850500D01*
X156985251Y-97827587D01*
X157027587Y-97785251D01*
X157050500Y-97729936D01*
X157050500Y-96575685D01*
X158519500Y-96575685D01*
X158519500Y-97024314D01*
X158525931Y-97073171D01*
X158525932Y-97073173D01*
X158575935Y-97180404D01*
X158659596Y-97264065D01*
X158700059Y-97282933D01*
X158738322Y-97324690D01*
X158735852Y-97381274D01*
X158700059Y-97417066D01*
X158682882Y-97425076D01*
X158659595Y-97435935D01*
X158575935Y-97519595D01*
X158525931Y-97626828D01*
X158519500Y-97675685D01*
X158519500Y-98124314D01*
X158525931Y-98173171D01*
X158525932Y-98173173D01*
X158575935Y-98280404D01*
X158659596Y-98364065D01*
X158766827Y-98414068D01*
X158815684Y-98420500D01*
X158815686Y-98420500D01*
X159164314Y-98420500D01*
X159164316Y-98420500D01*
X159213173Y-98414068D01*
X159320404Y-98364065D01*
X159404065Y-98280404D01*
X159432933Y-98218495D01*
X159474690Y-98180232D01*
X159531273Y-98182702D01*
X159567067Y-98218496D01*
X159595933Y-98280402D01*
X159595935Y-98280404D01*
X159679596Y-98364065D01*
X159786827Y-98414068D01*
X159835684Y-98420500D01*
X159835686Y-98420500D01*
X160184314Y-98420500D01*
X160184316Y-98420500D01*
X160233173Y-98414068D01*
X160340404Y-98364065D01*
X160424065Y-98280404D01*
X160460054Y-98203226D01*
X160469758Y-98194334D01*
X160474795Y-98182174D01*
X160489821Y-98175949D01*
X160501812Y-98164963D01*
X160527121Y-98160500D01*
X160625500Y-98160500D01*
X160677826Y-98182174D01*
X160699500Y-98234500D01*
X160699500Y-98719748D01*
X160707255Y-98758736D01*
X160711133Y-98778232D01*
X160740608Y-98822343D01*
X160755448Y-98844552D01*
X160799560Y-98874027D01*
X160821767Y-98888866D01*
X160821768Y-98888866D01*
X160821769Y-98888867D01*
X160880252Y-98900500D01*
X160880254Y-98900500D01*
X161919746Y-98900500D01*
X161919748Y-98900500D01*
X161978231Y-98888867D01*
X162044552Y-98844552D01*
X162088867Y-98778231D01*
X162100500Y-98719748D01*
X162100500Y-97680252D01*
X162088867Y-97621769D01*
X162087529Y-97619767D01*
X162061962Y-97581504D01*
X162044552Y-97555448D01*
X162044548Y-97555445D01*
X162041429Y-97552326D01*
X162019755Y-97500000D01*
X162041429Y-97447674D01*
X162044545Y-97444556D01*
X162044552Y-97444552D01*
X162088867Y-97378231D01*
X162100500Y-97319748D01*
X162100500Y-96280252D01*
X162088867Y-96221769D01*
X162087515Y-96219746D01*
X162074027Y-96199560D01*
X162044552Y-96155448D01*
X162022343Y-96140608D01*
X161978232Y-96111133D01*
X161978233Y-96111133D01*
X161948989Y-96105316D01*
X161919748Y-96099500D01*
X160880252Y-96099500D01*
X160851010Y-96105316D01*
X160821767Y-96111133D01*
X160755449Y-96155447D01*
X160755447Y-96155449D01*
X160711133Y-96221767D01*
X160699500Y-96280253D01*
X160699500Y-96465500D01*
X160677826Y-96517826D01*
X160625500Y-96539500D01*
X160527121Y-96539500D01*
X160474795Y-96517826D01*
X160460054Y-96496774D01*
X160452933Y-96481504D01*
X160424065Y-96419596D01*
X160340404Y-96335935D01*
X160233173Y-96285932D01*
X160233171Y-96285931D01*
X160197178Y-96281193D01*
X160184316Y-96279500D01*
X159835684Y-96279500D01*
X159824318Y-96280996D01*
X159786828Y-96285931D01*
X159679595Y-96335935D01*
X159595935Y-96419595D01*
X159595935Y-96419596D01*
X159574530Y-96465500D01*
X159567067Y-96481504D01*
X159525309Y-96519767D01*
X159468726Y-96517297D01*
X159432933Y-96481504D01*
X159404065Y-96419596D01*
X159320404Y-96335935D01*
X159213173Y-96285932D01*
X159213171Y-96285931D01*
X159177178Y-96281193D01*
X159164316Y-96279500D01*
X158815684Y-96279500D01*
X158804318Y-96280996D01*
X158766828Y-96285931D01*
X158659595Y-96335935D01*
X158575935Y-96419595D01*
X158525931Y-96526828D01*
X158519500Y-96575685D01*
X157050500Y-96575685D01*
X157050500Y-84624500D01*
X157072174Y-84572174D01*
X157124500Y-84550500D01*
X166232672Y-84550500D01*
X166284998Y-84572174D01*
X166306672Y-84624500D01*
X166218153Y-106405408D01*
X166208519Y-108775801D01*
X166186633Y-108828038D01*
X166134520Y-108849500D01*
X133824500Y-108849500D01*
X133772174Y-108827826D01*
X133750500Y-108775500D01*
X133750500Y-102100692D01*
X133772174Y-102048366D01*
X133824500Y-102026692D01*
X133876826Y-102048366D01*
X133931684Y-102103224D01*
X134040513Y-102153972D01*
X134090099Y-102160500D01*
X134509900Y-102160499D01*
X134559487Y-102153972D01*
X134668316Y-102103224D01*
X134719366Y-102052174D01*
X134771692Y-102030500D01*
X135301745Y-102030500D01*
X135354071Y-102052174D01*
X135375745Y-102104500D01*
X135357659Y-102148161D01*
X135359497Y-102149389D01*
X135355448Y-102155447D01*
X135355448Y-102155448D01*
X135352073Y-102160499D01*
X135311133Y-102221767D01*
X135311133Y-102221769D01*
X135299500Y-102280252D01*
X135299500Y-103519748D01*
X135305084Y-103547822D01*
X135311133Y-103578232D01*
X135328737Y-103604577D01*
X135355448Y-103644552D01*
X135383985Y-103663620D01*
X135416613Y-103685422D01*
X135448078Y-103732514D01*
X135449500Y-103746950D01*
X135449500Y-104115500D01*
X135427826Y-104167826D01*
X135375502Y-104189500D01*
X135340100Y-104189500D01*
X135290514Y-104196027D01*
X135290512Y-104196028D01*
X135181683Y-104246776D01*
X135096776Y-104331683D01*
X135046027Y-104440514D01*
X135039500Y-104490100D01*
X135039500Y-104909899D01*
X135046027Y-104959485D01*
X135046028Y-104959487D01*
X135096776Y-105068316D01*
X135181684Y-105153224D01*
X135290513Y-105203972D01*
X135340099Y-105210500D01*
X135699900Y-105210499D01*
X135749487Y-105203972D01*
X135858316Y-105153224D01*
X135943224Y-105068316D01*
X135993972Y-104959487D01*
X136000500Y-104909901D01*
X136000499Y-104745833D01*
X136022173Y-104693508D01*
X136022174Y-104693508D01*
X136080464Y-104635218D01*
X136080464Y-104635217D01*
X136080470Y-104635212D01*
X136126614Y-104555288D01*
X136150500Y-104466144D01*
X136150500Y-104466139D01*
X136150540Y-104465841D01*
X136150618Y-104465705D01*
X136151756Y-104461459D01*
X136152893Y-104461763D01*
X136178859Y-104416792D01*
X136223907Y-104401500D01*
X137775166Y-104401500D01*
X137827492Y-104423174D01*
X140484788Y-107080470D01*
X140564712Y-107126614D01*
X140564713Y-107126614D01*
X140564715Y-107126615D01*
X140609284Y-107138557D01*
X140653853Y-107150499D01*
X140653854Y-107150500D01*
X140653856Y-107150500D01*
X151246146Y-107150500D01*
X151246146Y-107150499D01*
X151335288Y-107126614D01*
X151415212Y-107080470D01*
X152068508Y-106427174D01*
X152120834Y-106405500D01*
X153445413Y-106405500D01*
X153447823Y-106405342D01*
X153447827Y-106405408D01*
X153454054Y-106405000D01*
X153545946Y-106405000D01*
X153552172Y-106405408D01*
X153552177Y-106405342D01*
X153554587Y-106405500D01*
X153554593Y-106405500D01*
X153825998Y-106405500D01*
X153826000Y-106405500D01*
X153904641Y-106389857D01*
X153956967Y-106368183D01*
X154015261Y-106331555D01*
X154068183Y-106256967D01*
X154089857Y-106204641D01*
X154105500Y-106126000D01*
X154105500Y-103656903D01*
X154127174Y-103604577D01*
X154157462Y-103586261D01*
X154192440Y-103575349D01*
X154245230Y-103550160D01*
X154443578Y-103417928D01*
X154484626Y-103405500D01*
X156220500Y-103405500D01*
X156272826Y-103427174D01*
X156294500Y-103479500D01*
X156294500Y-104476000D01*
X156299197Y-104519684D01*
X156310407Y-104571215D01*
X156312888Y-104581370D01*
X156312889Y-104581372D01*
X156355899Y-104662083D01*
X156355901Y-104662087D01*
X156369891Y-104678232D01*
X156401655Y-104714889D01*
X156419246Y-104732843D01*
X156499061Y-104777489D01*
X156499062Y-104777489D01*
X156499063Y-104777490D01*
X156508469Y-104780252D01*
X156566098Y-104797174D01*
X156566099Y-104797174D01*
X156566102Y-104797175D01*
X156624000Y-104805500D01*
X156624004Y-104805500D01*
X157921032Y-104805500D01*
X157978109Y-104797413D01*
X157978110Y-104797412D01*
X157978115Y-104797412D01*
X158037454Y-104780253D01*
X158774500Y-104780253D01*
X158774500Y-105419746D01*
X158786133Y-105478232D01*
X158815608Y-105522343D01*
X158830448Y-105544552D01*
X158874560Y-105574027D01*
X158896767Y-105588866D01*
X158896768Y-105588866D01*
X158896769Y-105588867D01*
X158955252Y-105600500D01*
X158955254Y-105600500D01*
X160044746Y-105600500D01*
X160044748Y-105600500D01*
X160103231Y-105588867D01*
X160169552Y-105544552D01*
X160213867Y-105478231D01*
X160225500Y-105419748D01*
X160225500Y-104780252D01*
X160213867Y-104721769D01*
X160212515Y-104719746D01*
X160184775Y-104678231D01*
X160169552Y-104655448D01*
X160139263Y-104635209D01*
X160103232Y-104611133D01*
X160103233Y-104611133D01*
X160073989Y-104605316D01*
X160044748Y-104599500D01*
X158955252Y-104599500D01*
X158926010Y-104605316D01*
X158896767Y-104611133D01*
X158830449Y-104655447D01*
X158830447Y-104655449D01*
X158786133Y-104721767D01*
X158781601Y-104744552D01*
X158775050Y-104777490D01*
X158774500Y-104780253D01*
X158037454Y-104780253D01*
X158044294Y-104778275D01*
X158067188Y-104770160D01*
X158141401Y-104716712D01*
X158187589Y-104664287D01*
X158219617Y-104615341D01*
X159574588Y-101711830D01*
X159588990Y-101669434D01*
X159600623Y-101616996D01*
X159605500Y-101572489D01*
X159605500Y-100524000D01*
X159600803Y-100480316D01*
X159589597Y-100428805D01*
X159589592Y-100428784D01*
X159587111Y-100418629D01*
X159587110Y-100418627D01*
X159544100Y-100337915D01*
X159544098Y-100337913D01*
X159544098Y-100337912D01*
X159498348Y-100285115D01*
X159498345Y-100285111D01*
X159480754Y-100267157D01*
X159448441Y-100249082D01*
X159413356Y-100204622D01*
X159419985Y-100148374D01*
X159464446Y-100113288D01*
X159484568Y-100110500D01*
X160175500Y-100110500D01*
X160227826Y-100132174D01*
X160249500Y-100184500D01*
X160249500Y-100194748D01*
X160249925Y-100196883D01*
X160261133Y-100253232D01*
X160289377Y-100295500D01*
X160305448Y-100319552D01*
X160347762Y-100347826D01*
X160371767Y-100363866D01*
X160371768Y-100363866D01*
X160371769Y-100363867D01*
X160430252Y-100375500D01*
X160430254Y-100375500D01*
X161569746Y-100375500D01*
X161569748Y-100375500D01*
X161628231Y-100363867D01*
X161694552Y-100319552D01*
X161738867Y-100253231D01*
X161750500Y-100194748D01*
X161750500Y-99505252D01*
X161738867Y-99446769D01*
X161694552Y-99380448D01*
X161672343Y-99365608D01*
X161628232Y-99336133D01*
X161628233Y-99336133D01*
X161598989Y-99330316D01*
X161569748Y-99324500D01*
X160430252Y-99324500D01*
X160401010Y-99330316D01*
X160371767Y-99336133D01*
X160305449Y-99380447D01*
X160305447Y-99380449D01*
X160261133Y-99446767D01*
X160249500Y-99505253D01*
X160249500Y-99515500D01*
X160227826Y-99567826D01*
X160175500Y-99589500D01*
X157988555Y-99589500D01*
X157936229Y-99567826D01*
X156547562Y-98179160D01*
X156547560Y-98179158D01*
X156491475Y-98155927D01*
X156451817Y-98139500D01*
X152131817Y-98139500D01*
X152028183Y-98139500D01*
X151932441Y-98179156D01*
X151932438Y-98179158D01*
X151652439Y-98459159D01*
X151579158Y-98532440D01*
X151539499Y-98628184D01*
X151538078Y-98635332D01*
X151535820Y-98634882D01*
X151517826Y-98678326D01*
X151465500Y-98700000D01*
X151323874Y-98700000D01*
X151271548Y-98678326D01*
X151262346Y-98667113D01*
X151254552Y-98655448D01*
X151224447Y-98635332D01*
X151188232Y-98611133D01*
X151188233Y-98611133D01*
X151158989Y-98605316D01*
X151129748Y-98599500D01*
X150870252Y-98599500D01*
X150814436Y-98610602D01*
X150785564Y-98610602D01*
X150729748Y-98599500D01*
X150470252Y-98599500D01*
X150414436Y-98610602D01*
X150385564Y-98610602D01*
X150329748Y-98599500D01*
X150070252Y-98599500D01*
X150014436Y-98610602D01*
X149985564Y-98610602D01*
X149929748Y-98599500D01*
X149670252Y-98599500D01*
X149614436Y-98610602D01*
X149585564Y-98610602D01*
X149529748Y-98599500D01*
X149270252Y-98599500D01*
X149214436Y-98610602D01*
X149185564Y-98610602D01*
X149129748Y-98599500D01*
X148870252Y-98599500D01*
X148814436Y-98610602D01*
X148785564Y-98610602D01*
X148729748Y-98599500D01*
X148470252Y-98599500D01*
X148414436Y-98610602D01*
X148385564Y-98610602D01*
X148329748Y-98599500D01*
X148070252Y-98599500D01*
X148014436Y-98610602D01*
X147985564Y-98610602D01*
X147929748Y-98599500D01*
X147670252Y-98599500D01*
X147614436Y-98610602D01*
X147585564Y-98610602D01*
X147529748Y-98599500D01*
X147270252Y-98599500D01*
X147214436Y-98610602D01*
X147185564Y-98610602D01*
X147129748Y-98599500D01*
X146870252Y-98599500D01*
X146814436Y-98610602D01*
X146785564Y-98610602D01*
X146729748Y-98599500D01*
X146470252Y-98599500D01*
X146414436Y-98610602D01*
X146385564Y-98610602D01*
X146329748Y-98599500D01*
X146070252Y-98599500D01*
X146041010Y-98605316D01*
X146011767Y-98611133D01*
X145945449Y-98655447D01*
X145945448Y-98655448D01*
X145939501Y-98664349D01*
X145937654Y-98667113D01*
X145890562Y-98698578D01*
X145876126Y-98700000D01*
X145600000Y-98700000D01*
X145600000Y-101300000D01*
X145775500Y-101300000D01*
X145827826Y-101321674D01*
X145849500Y-101374000D01*
X145849500Y-101724166D01*
X145827826Y-101776492D01*
X145626492Y-101977826D01*
X145574166Y-101999500D01*
X144674500Y-101999500D01*
X144622174Y-101977826D01*
X144600500Y-101925500D01*
X144600500Y-101080253D01*
X144597384Y-101064586D01*
X144588867Y-101021769D01*
X144544552Y-100955448D01*
X144522343Y-100940608D01*
X144478232Y-100911133D01*
X144478233Y-100911133D01*
X144448989Y-100905316D01*
X144419748Y-100899500D01*
X143380252Y-100899500D01*
X143351010Y-100905316D01*
X143321767Y-100911133D01*
X143255449Y-100955447D01*
X143255447Y-100955449D01*
X143211133Y-101021767D01*
X143199500Y-101080253D01*
X143199500Y-101925500D01*
X143177826Y-101977826D01*
X143125500Y-101999500D01*
X142449500Y-101999500D01*
X142397174Y-101977826D01*
X142375500Y-101925500D01*
X142375500Y-101845740D01*
X142375500Y-101845734D01*
X142372646Y-101815301D01*
X142327793Y-101687118D01*
X142314742Y-101669434D01*
X142247153Y-101577853D01*
X142247146Y-101577846D01*
X142137883Y-101497207D01*
X142137881Y-101497206D01*
X142009704Y-101452355D01*
X142009705Y-101452355D01*
X142009700Y-101452354D01*
X142009699Y-101452354D01*
X141979266Y-101449500D01*
X141979260Y-101449500D01*
X141125834Y-101449500D01*
X141073508Y-101427826D01*
X140272174Y-100626492D01*
X140250500Y-100574166D01*
X140250500Y-95753854D01*
X140250499Y-95753853D01*
X140226615Y-95664715D01*
X140226613Y-95664710D01*
X140180471Y-95584791D01*
X140180470Y-95584790D01*
X140180469Y-95584788D01*
X140115212Y-95519531D01*
X139144717Y-94549035D01*
X139123044Y-94496711D01*
X139141784Y-94451468D01*
X139140503Y-94450612D01*
X139188866Y-94378232D01*
X139188865Y-94378232D01*
X139188867Y-94378231D01*
X139200500Y-94319748D01*
X139200500Y-93680252D01*
X139188867Y-93621769D01*
X139144552Y-93555448D01*
X139122343Y-93540608D01*
X139078232Y-93511133D01*
X139078233Y-93511133D01*
X139048989Y-93505316D01*
X139019748Y-93499500D01*
X137780252Y-93499500D01*
X137751010Y-93505316D01*
X137721767Y-93511133D01*
X137655449Y-93555447D01*
X137655447Y-93555449D01*
X137611133Y-93621767D01*
X137611133Y-93621769D01*
X137599500Y-93680252D01*
X137599500Y-94319748D01*
X137600744Y-94326000D01*
X137611133Y-94378232D01*
X137640608Y-94422343D01*
X137655448Y-94444552D01*
X137699560Y-94474027D01*
X137721767Y-94488866D01*
X137721768Y-94488866D01*
X137721769Y-94488867D01*
X137780252Y-94500500D01*
X138074167Y-94500500D01*
X138126491Y-94522173D01*
X138824819Y-95220500D01*
X138877493Y-95273174D01*
X138899167Y-95325500D01*
X138877493Y-95377826D01*
X138825167Y-95399500D01*
X137780252Y-95399500D01*
X137751010Y-95405316D01*
X137721767Y-95411133D01*
X137655449Y-95455447D01*
X137655447Y-95455449D01*
X137611133Y-95521767D01*
X137599500Y-95580253D01*
X137599500Y-96219746D01*
X137611133Y-96278232D01*
X137640608Y-96322343D01*
X137655448Y-96344552D01*
X137699560Y-96374027D01*
X137721767Y-96388866D01*
X137721768Y-96388866D01*
X137721769Y-96388867D01*
X137780252Y-96400500D01*
X137780254Y-96400500D01*
X139019746Y-96400500D01*
X139019748Y-96400500D01*
X139078231Y-96388867D01*
X139144552Y-96344552D01*
X139188867Y-96278231D01*
X139200500Y-96219748D01*
X139200500Y-95774833D01*
X139222174Y-95722507D01*
X139274500Y-95700833D01*
X139326826Y-95722507D01*
X139527826Y-95923507D01*
X139549500Y-95975833D01*
X139549500Y-100796146D01*
X139571661Y-100878850D01*
X139571661Y-100878852D01*
X139571662Y-100878852D01*
X139571663Y-100878856D01*
X139573386Y-100885288D01*
X139588308Y-100911133D01*
X139619530Y-100965212D01*
X140602826Y-101948508D01*
X140624500Y-102000834D01*
X140624500Y-102854266D01*
X140627354Y-102884699D01*
X140627354Y-102884701D01*
X140627355Y-102884704D01*
X140672206Y-103012881D01*
X140672207Y-103012883D01*
X140752846Y-103122146D01*
X140752853Y-103122153D01*
X140862116Y-103202792D01*
X140862118Y-103202793D01*
X140990295Y-103247644D01*
X140990301Y-103247646D01*
X141020734Y-103250500D01*
X141702446Y-103250500D01*
X141754772Y-103272174D01*
X141776446Y-103324500D01*
X141754772Y-103376826D01*
X141753772Y-103377826D01*
X141701446Y-103399500D01*
X141080252Y-103399500D01*
X141051010Y-103405316D01*
X141021767Y-103411133D01*
X140955449Y-103455447D01*
X140955447Y-103455449D01*
X140911133Y-103521767D01*
X140905951Y-103547822D01*
X140899500Y-103580252D01*
X140899500Y-104619748D01*
X140902576Y-104635212D01*
X140911133Y-104678232D01*
X140935624Y-104714884D01*
X140955448Y-104744552D01*
X140997087Y-104772375D01*
X141021767Y-104788866D01*
X141021768Y-104788866D01*
X141021769Y-104788867D01*
X141080252Y-104800500D01*
X141080254Y-104800500D01*
X142119746Y-104800500D01*
X142119748Y-104800500D01*
X142178231Y-104788867D01*
X142244552Y-104744552D01*
X142288867Y-104678231D01*
X142300500Y-104619748D01*
X142300500Y-103598554D01*
X142322174Y-103546228D01*
X142388902Y-103479500D01*
X142520841Y-103347562D01*
X142522653Y-103343185D01*
X142538693Y-103319175D01*
X142736697Y-103121174D01*
X142789023Y-103099500D01*
X145653445Y-103099500D01*
X145705771Y-103121174D01*
X145727445Y-103173500D01*
X145705771Y-103225826D01*
X145013772Y-103917826D01*
X144961446Y-103939500D01*
X144074500Y-103939500D01*
X144022174Y-103917826D01*
X144000500Y-103865500D01*
X144000500Y-103680253D01*
X143999660Y-103676029D01*
X143988867Y-103621769D01*
X143977379Y-103604577D01*
X143964557Y-103585387D01*
X143944552Y-103555448D01*
X143894146Y-103521767D01*
X143878232Y-103511133D01*
X143878233Y-103511133D01*
X143848989Y-103505316D01*
X143819748Y-103499500D01*
X142780252Y-103499500D01*
X142751010Y-103505316D01*
X142721767Y-103511133D01*
X142655449Y-103555447D01*
X142655447Y-103555449D01*
X142611133Y-103621767D01*
X142605085Y-103652176D01*
X142599500Y-103680252D01*
X142599500Y-104719748D01*
X142604434Y-104744552D01*
X142611133Y-104778232D01*
X142623950Y-104797413D01*
X142655448Y-104844552D01*
X142699560Y-104874027D01*
X142721767Y-104888866D01*
X142721768Y-104888866D01*
X142721769Y-104888867D01*
X142780252Y-104900500D01*
X142780254Y-104900500D01*
X143819746Y-104900500D01*
X143819748Y-104900500D01*
X143878231Y-104888867D01*
X143944552Y-104844552D01*
X143988867Y-104778231D01*
X144000500Y-104719748D01*
X144000500Y-104534500D01*
X144022174Y-104482174D01*
X144074500Y-104460500D01*
X144992445Y-104460500D01*
X145044771Y-104482174D01*
X145066445Y-104534500D01*
X145044771Y-104586826D01*
X144126826Y-105504771D01*
X144074500Y-105526445D01*
X144022174Y-105504771D01*
X144000500Y-105452445D01*
X144000500Y-105280253D01*
X144000500Y-105280252D01*
X143988867Y-105221769D01*
X143944552Y-105155448D01*
X143922343Y-105140608D01*
X143878232Y-105111133D01*
X143878233Y-105111133D01*
X143848989Y-105105316D01*
X143819748Y-105099500D01*
X142780252Y-105099500D01*
X142751010Y-105105316D01*
X142721767Y-105111133D01*
X142655449Y-105155447D01*
X142655447Y-105155449D01*
X142611133Y-105221767D01*
X142599500Y-105280253D01*
X142599500Y-106319747D01*
X142607718Y-106361064D01*
X142596668Y-106416613D01*
X142549576Y-106448078D01*
X142535140Y-106449500D01*
X140875834Y-106449500D01*
X140823508Y-106427826D01*
X138166211Y-103770529D01*
X138156128Y-103764707D01*
X138121652Y-103719772D01*
X138129047Y-103663620D01*
X138140808Y-103648294D01*
X138144545Y-103644556D01*
X138144552Y-103644552D01*
X138188867Y-103578231D01*
X138200500Y-103519748D01*
X138200500Y-102280252D01*
X138188867Y-102221769D01*
X138144552Y-102155448D01*
X138083387Y-102114578D01*
X138051922Y-102067486D01*
X138050500Y-102053050D01*
X138050500Y-101953854D01*
X138050499Y-101953853D01*
X138026615Y-101864715D01*
X138026613Y-101864710D01*
X137980471Y-101784791D01*
X137980470Y-101784790D01*
X137980469Y-101784788D01*
X137915212Y-101719531D01*
X137595212Y-101399530D01*
X137593532Y-101398560D01*
X137515289Y-101353386D01*
X137515284Y-101353384D01*
X137426146Y-101329500D01*
X137426144Y-101329500D01*
X137394502Y-101329500D01*
X137342176Y-101307826D01*
X137320502Y-101255500D01*
X137333730Y-101220067D01*
X137330665Y-101218317D01*
X137334279Y-101211988D01*
X137379626Y-101132566D01*
X137394651Y-101083012D01*
X137400238Y-101064586D01*
X137398520Y-101051772D01*
X137405000Y-101023384D01*
X137405000Y-99788564D01*
X137405089Y-99784938D01*
X137405101Y-99784691D01*
X137405252Y-99781619D01*
X137405500Y-99771536D01*
X137405500Y-98209437D01*
X137405500Y-98209428D01*
X137404541Y-98194334D01*
X137403849Y-98183444D01*
X137401481Y-98164873D01*
X137396555Y-98139293D01*
X136713293Y-95503856D01*
X136692758Y-95453412D01*
X136692758Y-95453411D01*
X136692755Y-95453406D01*
X136692754Y-95453403D01*
X136673448Y-95419648D01*
X136648293Y-95384739D01*
X136648291Y-95384737D01*
X136648290Y-95384736D01*
X136573704Y-95331816D01*
X136521383Y-95310144D01*
X136521373Y-95310141D01*
X136468712Y-95299666D01*
X136442738Y-95294500D01*
X136442736Y-95294500D01*
X135379000Y-95294500D01*
X135326674Y-95272826D01*
X135305000Y-95220500D01*
X135305000Y-94679727D01*
X135318766Y-94636740D01*
X135318928Y-94636513D01*
X135366966Y-94606512D01*
X135379162Y-94605500D01*
X136425998Y-94605500D01*
X136426000Y-94605500D01*
X136504641Y-94589857D01*
X136556967Y-94568183D01*
X136615261Y-94531555D01*
X136668183Y-94456967D01*
X136689857Y-94404641D01*
X136705500Y-94326000D01*
X136705500Y-93674000D01*
X136689857Y-93595359D01*
X136673326Y-93555449D01*
X136668185Y-93543037D01*
X136668183Y-93543035D01*
X136668183Y-93543033D01*
X136631555Y-93484739D01*
X136556967Y-93431817D01*
X136556966Y-93431816D01*
X136504645Y-93410144D01*
X136504635Y-93410141D01*
X136451974Y-93399666D01*
X136426000Y-93394500D01*
X134554593Y-93394500D01*
X134554587Y-93394500D01*
X134552177Y-93394658D01*
X134552172Y-93394591D01*
X134545946Y-93395000D01*
X134454054Y-93395000D01*
X134447827Y-93394591D01*
X134447823Y-93394658D01*
X134445413Y-93394500D01*
X134445407Y-93394500D01*
X134374000Y-93394500D01*
X134351707Y-93398934D01*
X134295364Y-93410141D01*
X134295354Y-93410144D01*
X134243037Y-93431814D01*
X134184739Y-93468445D01*
X134184737Y-93468447D01*
X134131816Y-93543033D01*
X134110144Y-93595354D01*
X134110141Y-93595364D01*
X134094500Y-93674001D01*
X134094500Y-95869346D01*
X134110141Y-95947983D01*
X134110144Y-95947993D01*
X134131815Y-96000312D01*
X134131816Y-96000314D01*
X134131817Y-96000315D01*
X134176364Y-96066984D01*
X135072826Y-96963446D01*
X135094500Y-97015771D01*
X135094500Y-98376284D01*
X135104302Y-98438996D01*
X135104303Y-98439002D01*
X135118087Y-98482013D01*
X135146558Y-98538734D01*
X135146559Y-98538737D01*
X135820666Y-99482488D01*
X135833443Y-99537666D01*
X135803462Y-99585716D01*
X135760450Y-99599500D01*
X135480252Y-99599500D01*
X135451010Y-99605316D01*
X135421767Y-99611133D01*
X135355449Y-99655447D01*
X135355447Y-99655449D01*
X135311133Y-99721767D01*
X135299500Y-99780253D01*
X135299500Y-100295500D01*
X135277826Y-100347826D01*
X135225500Y-100369500D01*
X134771692Y-100369500D01*
X134719366Y-100347826D01*
X134668316Y-100296776D01*
X134643300Y-100285111D01*
X134559487Y-100246028D01*
X134559485Y-100246027D01*
X134522955Y-100241218D01*
X134509901Y-100239500D01*
X134509899Y-100239500D01*
X134090100Y-100239500D01*
X134040514Y-100246027D01*
X134040512Y-100246028D01*
X133931683Y-100296776D01*
X133876826Y-100351634D01*
X133824500Y-100373308D01*
X133772174Y-100351634D01*
X133750500Y-100299308D01*
X133750500Y-84624500D01*
X133772174Y-84572174D01*
X133824500Y-84550500D01*
X142875500Y-84550500D01*
X142927826Y-84572174D01*
G37*
%TD.AperFunction*%
%TA.AperFunction,Conductor*%
G36*
X152411541Y-101388714D02*
G01*
X152411769Y-101388867D01*
X152470252Y-101400500D01*
X152542464Y-101400500D01*
X152545775Y-101400798D01*
X152568138Y-101412511D01*
X152591467Y-101422174D01*
X152592818Y-101425437D01*
X152595947Y-101427076D01*
X152603478Y-101451171D01*
X152613141Y-101474500D01*
X152611789Y-101477763D01*
X152612843Y-101481134D01*
X152610771Y-101491777D01*
X152610852Y-101491794D01*
X152594500Y-101574000D01*
X152594500Y-103545409D01*
X152594658Y-103547818D01*
X152594591Y-103547822D01*
X152595000Y-103554051D01*
X152595000Y-103645947D01*
X152594592Y-103652176D01*
X152594658Y-103652181D01*
X152594500Y-103654589D01*
X152594500Y-103673795D01*
X152572826Y-103726121D01*
X152551408Y-103741031D01*
X152523527Y-103753847D01*
X152483700Y-103776841D01*
X152465856Y-103784232D01*
X152451576Y-103788058D01*
X152435082Y-103792478D01*
X152415931Y-103795000D01*
X152384072Y-103795000D01*
X152364920Y-103792479D01*
X152364916Y-103792478D01*
X152342341Y-103786429D01*
X152342340Y-103786428D01*
X152342337Y-103786428D01*
X152300366Y-103779733D01*
X152288204Y-103779069D01*
X152269969Y-103778073D01*
X152269965Y-103778073D01*
X152269963Y-103778073D01*
X152227519Y-103780156D01*
X151858608Y-103836911D01*
X151803595Y-103823445D01*
X151774216Y-103775023D01*
X151775878Y-103744618D01*
X151781299Y-103724386D01*
X151800499Y-103652729D01*
X151800500Y-103652729D01*
X151800500Y-103547271D01*
X151800499Y-103547270D01*
X151800000Y-103545409D01*
X151773207Y-103445413D01*
X151720480Y-103354087D01*
X151645913Y-103279520D01*
X151590702Y-103247644D01*
X151554591Y-103226795D01*
X151554582Y-103226791D01*
X151452729Y-103199500D01*
X151452727Y-103199500D01*
X151347273Y-103199500D01*
X151347271Y-103199500D01*
X151245417Y-103226791D01*
X151245408Y-103226795D01*
X151154086Y-103279520D01*
X151079520Y-103354086D01*
X151026795Y-103445408D01*
X151026791Y-103445417D01*
X150999500Y-103547270D01*
X150999500Y-103652727D01*
X151005743Y-103676029D01*
X151004437Y-103685942D01*
X151008264Y-103695180D01*
X151000871Y-103713028D01*
X150998349Y-103732182D01*
X150986590Y-103747506D01*
X150888847Y-103845249D01*
X150836521Y-103866923D01*
X150784195Y-103845249D01*
X150762521Y-103792923D01*
X150771568Y-103759163D01*
X150771349Y-103759072D01*
X150772040Y-103757401D01*
X150772438Y-103755918D01*
X150773207Y-103754587D01*
X150800499Y-103652729D01*
X150800500Y-103652729D01*
X150800500Y-103547271D01*
X150800499Y-103547270D01*
X150800000Y-103545409D01*
X150773207Y-103445413D01*
X150720480Y-103354087D01*
X150645913Y-103279520D01*
X150590702Y-103247644D01*
X150554591Y-103226795D01*
X150554582Y-103226791D01*
X150452729Y-103199500D01*
X150452727Y-103199500D01*
X150347273Y-103199500D01*
X150347271Y-103199500D01*
X150245417Y-103226791D01*
X150245408Y-103226795D01*
X150154086Y-103279520D01*
X150079520Y-103354086D01*
X150026795Y-103445408D01*
X150026791Y-103445417D01*
X149999500Y-103547270D01*
X149999500Y-103601446D01*
X149977826Y-103653772D01*
X149779158Y-103852440D01*
X149752074Y-103917826D01*
X149739500Y-103948183D01*
X149739500Y-104845683D01*
X149739500Y-104949317D01*
X149779159Y-105045061D01*
X149954122Y-105220024D01*
X150122826Y-105388728D01*
X150144500Y-105441054D01*
X150144500Y-105794214D01*
X150154707Y-105864280D01*
X150154708Y-105864284D01*
X150154709Y-105864286D01*
X150207551Y-105972375D01*
X150292625Y-106057449D01*
X150400714Y-106110291D01*
X150470785Y-106120500D01*
X150934214Y-106120499D01*
X151004280Y-106110292D01*
X151004281Y-106110291D01*
X151004286Y-106110291D01*
X151112375Y-106057449D01*
X151168174Y-106001650D01*
X151192295Y-105991658D01*
X151215720Y-105980131D01*
X151218138Y-105980954D01*
X151220500Y-105979976D01*
X151244620Y-105989967D01*
X151269337Y-105998379D01*
X151270354Y-106000626D01*
X151272826Y-106001650D01*
X151294345Y-106049196D01*
X151294500Y-106051590D01*
X151294500Y-106126000D01*
X151301640Y-106161897D01*
X151301956Y-106166773D01*
X151294284Y-106189314D01*
X151289639Y-106212666D01*
X151283996Y-106219541D01*
X151283708Y-106220390D01*
X151283024Y-106220726D01*
X151280437Y-106223879D01*
X151076492Y-106427826D01*
X151024166Y-106449500D01*
X144064860Y-106449500D01*
X144012534Y-106427826D01*
X143990860Y-106375500D01*
X143992282Y-106361064D01*
X144000500Y-106319747D01*
X144000500Y-106134500D01*
X144022174Y-106082174D01*
X144074500Y-106060500D01*
X144251815Y-106060500D01*
X144251817Y-106060500D01*
X144347561Y-106020841D01*
X146765228Y-103603174D01*
X146817554Y-103581500D01*
X149330815Y-103581500D01*
X149330817Y-103581500D01*
X149426561Y-103541841D01*
X150420842Y-102547561D01*
X150460500Y-102451817D01*
X150460500Y-102348183D01*
X150460500Y-101474500D01*
X150482174Y-101422174D01*
X150534500Y-101400500D01*
X150729746Y-101400500D01*
X150729748Y-101400500D01*
X150785567Y-101389397D01*
X150814433Y-101389397D01*
X150870252Y-101400500D01*
X150870254Y-101400500D01*
X151129746Y-101400500D01*
X151129748Y-101400500D01*
X151185567Y-101389397D01*
X151214433Y-101389397D01*
X151270252Y-101400500D01*
X151270254Y-101400500D01*
X151529746Y-101400500D01*
X151529748Y-101400500D01*
X151585567Y-101389397D01*
X151614433Y-101389397D01*
X151670252Y-101400500D01*
X151670254Y-101400500D01*
X151929746Y-101400500D01*
X151929748Y-101400500D01*
X151985567Y-101389397D01*
X152014433Y-101389397D01*
X152070252Y-101400500D01*
X152070254Y-101400500D01*
X152329746Y-101400500D01*
X152329748Y-101400500D01*
X152385567Y-101389397D01*
X152403038Y-101389397D01*
X152406634Y-101388273D01*
X152411541Y-101388714D01*
G37*
%TD.AperFunction*%
%TA.AperFunction,Conductor*%
G36*
X137254071Y-102052174D02*
G01*
X137275745Y-102104500D01*
X137257659Y-102148161D01*
X137259497Y-102149389D01*
X137255448Y-102155447D01*
X137255448Y-102155448D01*
X137252073Y-102160499D01*
X137211133Y-102221767D01*
X137211133Y-102221769D01*
X137199500Y-102280252D01*
X137199500Y-103519748D01*
X137205084Y-103547822D01*
X137211133Y-103578232D01*
X137215914Y-103585387D01*
X137226964Y-103640935D01*
X137195499Y-103688028D01*
X137154386Y-103700500D01*
X136345614Y-103700500D01*
X136293288Y-103678826D01*
X136271614Y-103626500D01*
X136284086Y-103585387D01*
X136288866Y-103578232D01*
X136288865Y-103578232D01*
X136288867Y-103578231D01*
X136300500Y-103519748D01*
X136300500Y-102280252D01*
X136288867Y-102221769D01*
X136244552Y-102155448D01*
X136244551Y-102155447D01*
X136240503Y-102149389D01*
X136242340Y-102148161D01*
X136224255Y-102104500D01*
X136245929Y-102052174D01*
X136298255Y-102030500D01*
X137201745Y-102030500D01*
X137254071Y-102052174D01*
G37*
%TD.AperFunction*%
%TA.AperFunction,Conductor*%
G36*
X148317826Y-101321674D02*
G01*
X148339500Y-101374000D01*
X148339500Y-102003575D01*
X148329588Y-102040571D01*
X148326795Y-102045408D01*
X148326791Y-102045417D01*
X148299500Y-102147270D01*
X148299500Y-102252729D01*
X148326791Y-102354582D01*
X148326795Y-102354591D01*
X148379520Y-102445913D01*
X148385781Y-102452174D01*
X148407455Y-102504500D01*
X148385781Y-102556826D01*
X148333455Y-102578500D01*
X146195834Y-102578500D01*
X146143508Y-102556826D01*
X146121834Y-102504500D01*
X146143508Y-102452174D01*
X146496182Y-102099500D01*
X146880470Y-101715212D01*
X146926614Y-101635288D01*
X146942004Y-101577853D01*
X146943036Y-101574001D01*
X146950500Y-101546143D01*
X146950500Y-101374000D01*
X146972174Y-101321674D01*
X147024500Y-101300000D01*
X148265500Y-101300000D01*
X148317826Y-101321674D01*
G37*
%TD.AperFunction*%
%TA.AperFunction,Conductor*%
G36*
X156313772Y-98682174D02*
G01*
X157699771Y-100068174D01*
X157721445Y-100120500D01*
X157699771Y-100172826D01*
X157647445Y-100194500D01*
X156954587Y-100194500D01*
X156952177Y-100194658D01*
X156952172Y-100194591D01*
X156945946Y-100195000D01*
X156854054Y-100195000D01*
X156847827Y-100194591D01*
X156847823Y-100194658D01*
X156845413Y-100194500D01*
X156845407Y-100194500D01*
X156058078Y-100194500D01*
X156058061Y-100194500D01*
X156026881Y-100196882D01*
X155989652Y-100202601D01*
X155906448Y-100235011D01*
X155848417Y-100273903D01*
X155848410Y-100273908D01*
X155804947Y-100313059D01*
X155121376Y-101133345D01*
X155113537Y-101143367D01*
X155104488Y-101155701D01*
X155073011Y-101219352D01*
X155062373Y-101255578D01*
X155062355Y-101255639D01*
X155059589Y-101265028D01*
X155059435Y-101265218D01*
X155058613Y-101268285D01*
X155058150Y-101269934D01*
X155053954Y-101284248D01*
X155053944Y-101284283D01*
X155050400Y-101296351D01*
X155014860Y-101340450D01*
X154979398Y-101349500D01*
X154574000Y-101349500D01*
X154521674Y-101327826D01*
X154500000Y-101275500D01*
X154500000Y-98734500D01*
X154521674Y-98682174D01*
X154574000Y-98660500D01*
X156261446Y-98660500D01*
X156313772Y-98682174D01*
G37*
%TD.AperFunction*%
%TD*%
%TA.AperFunction,Conductor*%
%TO.N,+3.3V*%
G36*
X156847273Y-100400500D02*
G01*
X156952727Y-100400500D01*
X156954593Y-100400000D01*
X159276000Y-100400000D01*
X159343039Y-100419685D01*
X159388794Y-100472489D01*
X159400000Y-100524000D01*
X159400000Y-101572489D01*
X159388367Y-101624927D01*
X159376433Y-101650500D01*
X158033829Y-104527511D01*
X158033396Y-104528438D01*
X157987208Y-104580863D01*
X157921029Y-104600000D01*
X156624000Y-104600000D01*
X156556961Y-104580315D01*
X156511206Y-104527511D01*
X156500000Y-104476000D01*
X156500000Y-103200000D01*
X154400000Y-103200000D01*
X154131239Y-103379174D01*
X154064540Y-103399982D01*
X154062456Y-103400000D01*
X153400000Y-103400000D01*
X153400000Y-101600000D01*
X154015003Y-101600000D01*
X154040202Y-101611936D01*
X154043871Y-101615206D01*
X154049122Y-101616613D01*
X154064712Y-101625614D01*
X154153856Y-101649500D01*
X154246144Y-101649500D01*
X154838134Y-101649500D01*
X154853390Y-101650500D01*
X154853856Y-101650500D01*
X154946142Y-101650500D01*
X154946144Y-101650500D01*
X155035288Y-101626614D01*
X155037008Y-101625620D01*
X155037022Y-101625617D01*
X155037021Y-101625614D01*
X155115205Y-101580474D01*
X155115204Y-101580474D01*
X155115212Y-101580470D01*
X155180470Y-101515212D01*
X155226614Y-101435288D01*
X155239052Y-101388867D01*
X155250500Y-101346144D01*
X155250500Y-101344293D01*
X155250941Y-101342789D01*
X155251561Y-101338085D01*
X155252294Y-101338181D01*
X155270185Y-101277254D01*
X155279236Y-101264916D01*
X155962819Y-100444616D01*
X156020858Y-100405718D01*
X156058078Y-100400000D01*
X156845407Y-100400000D01*
X156847273Y-100400500D01*
G37*
%TD.AperFunction*%
%TD*%
M02*
