M48
; DRILL file {KiCad 9.0.0} date 2025-04-09T13:07:34+0200
; FORMAT={-:-/ absolute / metric / decimal}
; #@! TF.CreationDate,2025-04-09T13:07:34+02:00
; #@! TF.GenerationSoftware,Kicad,Pcbnew,9.0.0
; #@! TF.FileFunction,Plated,1,2,PTH
FMAT,2
METRIC
; #@! TA.AperFunction,Plated,PTH,ViaDrill
T1C0.300
; #@! TA.AperFunction,Plated,PTH,ComponentDrill
T2C0.500
; #@! TA.AperFunction,Plated,PTH,ComponentDrill
T3C2.100
%
G90
G05
T1
X134.1Y-85.0
X134.1Y-108.5
X134.3Y-102.8
X134.4Y-97.2
X134.4Y-99.4
X134.5Y-93.2
X137.2Y-94.9
X137.4Y-104.7
X137.6Y-87.2
X137.7Y-90.1
X138.0Y-97.3
X138.6Y-106.0
X138.7Y-100.4
X139.1Y-101.9
X139.3Y-99.6
X140.0Y-103.9
X140.2Y-102.2
X140.7Y-107.4
X140.8Y-105.7
X141.5Y-98.1
X142.2Y-105.2
X142.6Y-85.0
X142.8Y-101.6
X142.8Y-103.2
X143.1Y-99.7
X143.6Y-107.3
X144.3Y-104.8
X144.6Y-103.4
X144.7Y-98.2
X144.7Y-108.2
X144.9Y-101.7
X145.1Y-99.0
X145.1Y-100.9
X145.1Y-107.475
X145.5Y-108.2
X146.0Y-100.0
X146.1Y-104.9
X146.5Y-102.4
X146.5Y-107.5
X146.7Y-98.2
X146.7Y-99.65
X147.4Y-99.7
X147.9Y-104.9
X148.2Y-99.7
X148.7Y-102.2
X148.8Y-98.2
X149.0Y-101.6
X149.5Y-105.8
X149.7Y-99.7
X150.2Y-99.7
X150.4Y-103.6
X150.9Y-99.7
X151.1Y-107.3
X151.4Y-103.6
X151.6Y-99.8
X151.7Y-101.7
X152.2Y-99.8
X152.4Y-103.6
X153.4Y-103.1
X153.4Y-103.8
X153.5Y-106.6
X154.2Y-99.9
X154.3Y-106.8
X154.3Y-108.2
X154.7Y-107.475
X154.8Y-99.3
X154.9Y-100.9
X155.1Y-106.8
X155.1Y-108.2
X155.3Y-99.9
X155.7Y-104.7
X156.0Y-103.7
X156.3Y-108.4
X156.9Y-100.0
X157.5Y-85.0
X157.5Y-97.5
X158.1Y-99.1
X158.99Y-96.8
X158.99Y-97.9
X159.5Y-98.6
X159.9Y-100.4
X160.1Y-95.9
X160.6Y-108.4
X160.8Y-102.8
X161.1Y-101.0
X161.9Y-85.0
X161.9Y-89.0
X162.2Y-92.5
X162.3Y-101.8
X162.4Y-97.4
X165.7Y-108.4
X165.8Y-103.5
X165.9Y-85.0
X165.9Y-89.7
X165.9Y-94.8
X165.9Y-98.8
T2
X141.6Y-104.1
X143.3Y-104.2
X143.3Y-105.8
X143.9Y-101.6
X157.3Y-102.0
X161.4Y-96.8
X161.4Y-98.2
T3
X141.3Y-87.45
X141.3Y-94.45
X158.7Y-87.45
X158.7Y-94.45
M30
